  0
SECTION
  2
HEADER
  9
$ACADVER
  1
AC1018
  9
$ACADMAINTVER
 70
     0
  9
$DWGCODEPAGE
  3
ANSI_1252
  9
$EXTMIN
 10
-74.018001
 20
40.69502
 30
0.0
  9
$EXTMAX
 10
-73.925887
 20
40.82463
 30
0.0
  9
$LIMMIN
 10
0.0
 20
0.0
  9
$LIMMAX
 10
12.0
 20
9.0
  9
$ORTHOMODE
 70
     0
  9
$REGENMODE
 70
     1
  9
$FILLMODE
 70
     1
  9
$QTEXTMODE
 70
     0
  9
$MIRRTEXT
 70
     1
  9
$LTSCALE
 40
1.0
  9
$ATTMODE
 70
     1
  9
$TEXTSIZE
 40
0.2
  9
$TRACEWID
 40
0.05
  9
$TEXTSTYLE
  7
Standard
  9
$CLAYER
  8
0
  9
$CELTYPE
  6
ByLayer
  9
$CECOLOR
 62
   256
  9
$CELTSCALE
 40
1.0
  9
$DISPSILH
 70
     0
  9
$LUNITS
 70
     2
  9
$LUPREC
 70
     4
  9
$SKETCHINC
 40
0.1
  9
$FILLETRAD
 40
0.5
  9
$AUNITS
 70
     0
  9
$AUPREC
 70
     0
  9
$MENU
  1
.
  9
$ELEVATION
 40
0.0
  9
$PELEVATION
 40
0.0
  9
$THICKNESS
 40
0.0
  9
$LIMCHECK
 70
     0
  9
$CHAMFERA
 40
0.5
  9
$CHAMFERB
 40
0.5
  9
$CHAMFERC
 40
1.0
  9
$CHAMFERD
 40
0.0
  9
$SKPOLY
 70
     0
  9
$ANGBASE
 50
0.0
  9
$ANGDIR
 70
     0
  9
$PDMODE
 70
     0
  9
$PDSIZE
 40
0.0
  9
$PLINEWID
 40
0.0
  9
$SPLFRAME
 70
     0
  9
$SPLINETYPE
 70
     6
  9
$SPLINESEGS
 70
     8
  9
$HANDSEED
  5
000204B4
  9
$SURFTAB1
 70
     6
  9
$SURFTAB2
 70
     6
  9
$SURFTYPE
 70
     6
  9
$SURFU
 70
     6
  9
$SURFV
 70
     6
  9
$UCSBASE
  2

  9
$UCSNAME
  2

  9
$UCSORG
 10
0.0
 20
0.0
 30
0.0
  9
$UCSXDIR
 10
1.0
 20
0.0
 30
0.0
  9
$UCSYDIR
 10
0.0
 20
1.0
 30
0.0
  9
$UCSORTHOREF
  2

  9
$UCSORTHOVIEW
 70
     0
  9
$UCSORGTOP
 10
0.0
 20
0.0
 30
0.0
  9
$UCSORGBOTTOM
 10
0.0
 20
0.0
 30
0.0
  9
$UCSORGLEFT
 10
0.0
 20
0.0
 30
0.0
  9
$UCSORGRIGHT
 10
0.0
 20
0.0
 30
0.0
  9
$UCSORGFRONT
 10
0.0
 20
0.0
 30
0.0
  9
$UCSORGBACK
 10
0.0
 20
0.0
 30
0.0
  9
$PUCSBASE
  2

  9
$PUCSNAME
  2

  9
$PUCSORG
 10
0.0
 20
0.0
 30
0.0
  9
$PUCSXDIR
 10
1.0
 20
0.0
 30
0.0
  9
$PUCSYDIR
 10
0.0
 20
1.0
 30
0.0
  9
$PUCSORTHOREF
  2

  9
$PUCSORTHOVIEW
 70
     0
  9
$PUCSORGTOP
 10
0.0
 20
0.0
 30
0.0
  9
$PUCSORGBOTTOM
 10
0.0
 20
0.0
 30
0.0
  9
$PUCSORGLEFT
 10
0.0
 20
0.0
 30
0.0
  9
$PUCSORGRIGHT
 10
0.0
 20
0.0
 30
0.0
  9
$PUCSORGFRONT
 10
0.0
 20
0.0
 30
0.0
  9
$PUCSORGBACK
 10
0.0
 20
0.0
 30
0.0
  9
$WORLDVIEW
 70
     1
  9
$SHADEDGE
 70
     3
  9
$SHADEDIF
 70
    70
  9
$TILEMODE
 70
     1
  9
$MAXACTVP
 70
    64
  9
$PINSBASE
 10
0.0
 20
0.0
 30
0.0
  9
$PLIMCHECK
 70
     0
  9
$PEXTMIN
 10
1.000000000000000E+20
 20
1.000000000000000E+20
 30
1.000000000000000E+20
  9
$PEXTMAX
 10
-1.000000000000000E+20
 20
-1.000000000000000E+20
 30
-1.000000000000000E+20
  9
$PLIMMIN
 10
0.0
 20
0.0
  9
$PLIMMAX
 10
12.0
 20
9.0
  9
$UNITMODE
 70
     0
  9
$VISRETAIN
 70
     1
  9
$PLINEGEN
 70
     0
  9
$PSLTSCALE
 70
     1
  9
$TREEDEPTH
 70
  3020
  9
$CMLSTYLE
  2
Standard
  9
$CMLJUST
 70
     0
  9
$CMLSCALE
 40
1.0
  9
$PROXYGRAPHICS
 70
     1
  9
$MEASUREMENT
 70
     0
  9
$CELWEIGHT
370
    -1
  9
$ENDCAPS
280
     0
  9
$JOINSTYLE
280
     0
  9
$LWDISPLAY
290
     0
  9
$INSUNITS
 70
     1
  9
$HYPERLINKBASE
  1

  9
$STYLESHEET
  1

  9
$XEDIT
290
     1
  9
$CEPSNTYPE
380
     0
  9
$PSTYLEMODE
290
     1
  9
$EXTNAMES
290
     1
  9
$PSVPSCALE
 40
0.0
  9
$OLESTARTUP
290
     0
  9
$SORTENTS
280
   127
  9
$INDEXCTL
280
     0
  9
$HIDETEXT
280
     1
  9
$XCLIPFRAME
290
     0
  9
$HALOGAP
280
     0
  9
$OBSCOLOR
 70
   257
  9
$OBSLTYPE
280
     0
  9
$INTERSECTIONDISPLAY
280
     0
  9
$INTERSECTIONCOLOR
 70
   257
  9
$DIMASSOC
280
     2
  9
$PROJECTNAME
  1

  0
ENDSEC
  0
SECTION
  2
CLASSES
  0
CLASS
  1
ACDBDICTIONARYWDFLT
  2
AcDbDictionaryWithDefault
  3
ObjectDBX Classes
 90
        0
 91
        4
280
     0
281
     0
  0
ENDSEC
  0
SECTION
  2
TABLES
  0
TABLE
  2
VPORT
  5
8
330
0
100
AcDbSymbolTable
 70
     1
  0
VPORT
  5
29
330
8
100
AcDbSymbolTableRecord
100
AcDbViewportTableRecord
  2
*Active
 70
     0
 10
0.0
 20
0.0
 11
1.0
 21
1.0
 12
80.25
 22
106.4409457059851
 13
0.0
 23
0.0
 14
0.5
 24
0.5
 15
0.5
 25
0.5
 16
0.0
 26
0.0
 36
1.0
 17
0.0
 27
0.0
 37
0.0
 40
113.3818914119703
 41
0.8863849310366128
 42
50.0
 43
0.0
 44
0.0
 50
0.0
 51
0.0
 71
     0
 72
  1000
 73
     1
 74
     3
 75
     0
 76
     0
 77
     0
 78
     0
281
     0
 65
     1
110
0.0
120
0.0
130
0.0
111
1.0
121
0.0
131
0.0
112
0.0
122
1.0
132
0.0
 79
     0
146
0.0
  0
ENDTAB
  0
TABLE
  2
LTYPE
  5
5
330
0
100
AcDbSymbolTable
 70
     1
  0
LTYPE
  5
14
330
5
100
AcDbSymbolTableRecord
100
AcDbLinetypeTableRecord
  2
ByBlock
 70
     0
  3

 72
    65
 73
     0
 40
0.0
  0
LTYPE
  5
15
330
5
100
AcDbSymbolTableRecord
100
AcDbLinetypeTableRecord
  2
ByLayer
 70
     0
  3

 72
    65
 73
     0
 40
0.0
  0
LTYPE
  5
16
330
5
100
AcDbSymbolTableRecord
100
AcDbLinetypeTableRecord
  2
Continuous
 70
     0
  3
Solid line
 72
    65
 73
     0
 40
0.0
  0
ENDTAB
  0
TABLE
  2
LAYER
  5
2
330
0
100
AcDbSymbolTable
 70
     1
  0
LAYER
  5
10
330
2
100
AcDbSymbolTableRecord
100
AcDbLayerTableRecord
  2
0
 70
     0
 62
     7
  6
Continuous
370
    -3
390
F
  0
ENDTAB
  0
TABLE
  2
STYLE
  5
3
330
0
100
AcDbSymbolTable
 70
     1
  0
STYLE
  5
11
330
3
100
AcDbSymbolTableRecord
100
AcDbTextStyleTableRecord
  2
Standard
 70
     0
 40
0.0
 41
1.0
 50
0.0
 71
     0
 42
0.2
  3
txt
  4

  0
ENDTAB
  0
TABLE
  2
VIEW
  5
6
330
0
100
AcDbSymbolTable
 70
     0
  0
ENDTAB
  0
TABLE
  2
UCS
  5
7
330
0
100
AcDbSymbolTable
 70
     0
  0
ENDTAB
  0
TABLE
  2
APPID
  5
9
330
0
100
AcDbSymbolTable
 70
     1
  0
APPID
  5
12
330
9
100
AcDbSymbolTableRecord
100
AcDbRegAppTableRecord
  2
ACAD
 70
     0
  0
ENDTAB
  0
TABLE
  2
DIMSTYLE
  5
A
330
0
100
AcDbSymbolTable
 70
     1
100
AcDbDimStyleTable
  0
DIMSTYLE
105
27
330
A
100
AcDbSymbolTableRecord
100
AcDbDimStyleTableRecord
  2
Standard
 70
     0
340
11
  0
ENDTAB
  0
TABLE
  2
BLOCK_RECORD
  5
1
330
0
100
AcDbSymbolTable
 70
     1
  0
BLOCK_RECORD
  5
1F
330
1
100
AcDbSymbolTableRecord
100
AcDbBlockTableRecord
  2
*Model_Space
340
22
  0
BLOCK_RECORD
  5
1B
330
1
100
AcDbSymbolTableRecord
100
AcDbBlockTableRecord
  2
*Paper_Space
340
1E
  0
ENDTAB
  0
ENDSEC
  0
SECTION
  2
BLOCKS
  0
BLOCK
  5
20
330
1F
100
AcDbEntity
  8
0
100
AcDbBlockBegin
  2
*Model_Space
 70
     0
 10
0.0
 20
0.0
 30
0.0
  3
*Model_Space
  1

  0
ENDBLK
  5
21
330
1F
100
AcDbEntity
  8
0
100
AcDbBlockEnd
  0
BLOCK
  5
1C
330
1B
100
AcDbEntity
 67
     1
  8
0
100
AcDbBlockBegin
  2
*Paper_Space
 70
     0
 10
0.0
 20
0.0
 30
0.0
  3
*Paper_Space
  1

  0
ENDBLK
  5
1D
330
1B
100
AcDbEntity
 67
     1
  8
0
100
AcDbBlockEnd
  0
ENDSEC
  0
SECTION
  2
ENTITIES
  0
POINT
  5
20000
100
AcDbEntity
  8
0
100
AcDbPoint
 10
-73.984785
 20
40.728261
  0
POINT
  5
20001
100
AcDbEntity
  8
0
100
AcDbPoint
 10
-74.009053
 20
40.736112
  0
POINT
  5
20002
100
AcDbEntity
  8
0
100
AcDbPoint
 10
-73.994326
 20
40.751024
  0
POINT
  5
20003
100
AcDbEntity
  8
0
100
AcDbPoint
 10
-73.990365
 20
40.766661
  0
POINT
  5
20004
100
AcDbEntity
  8
0
100
AcDbPoint
 10
-73.990251
 20
40.727323
  0
POINT
  5
20005
100
AcDbEntity
  8
0
100
AcDbPoint
 10
-73.987536
 20
40.700663
  0
POINT
  5
20006
100
AcDbEntity
  8
0
100
AcDbPoint
 10
-73.980017
 20
40.72144
  0
POINT
  5
20007
100
AcDbEntity
  8
0
100
AcDbPoint
 10
-73.957562
 20
40.77528
  0
POINT
  5
20008
100
AcDbEntity
  8
0
100
AcDbPoint
 10
-73.986122
 20
40.718943
  0
POINT
  5
20009
100
AcDbEntity
  8
0
100
AcDbPoint
 10
-73.989073
 20
40.743523
  0
POINT
  5
2000A
100
AcDbEntity
  8
0
100
AcDbPoint
 10
-73.986587
 20
40.704313
  0
POINT
  5
2000B
100
AcDbEntity
  8
0
100
AcDbPoint
 10
-73.949425
 20
40.802359
  0
POINT
  5
2000C
100
AcDbEntity
  8
0
100
AcDbPoint
 10
-74.002162
 20
40.746836
  0
POINT
  5
2000D
100
AcDbEntity
  8
0
100
AcDbPoint
 10
-73.990807
 20
40.726785
  0
POINT
  5
2000E
100
AcDbEntity
  8
0
100
AcDbPoint
 10
-73.95102
 20
40.818329
  0
POINT
  5
2000F
100
AcDbEntity
  8
0
100
AcDbPoint
 10
-73.991315
 20
40.732343
  0
POINT
  5
20010
100
AcDbEntity
  8
0
100
AcDbPoint
 10
-73.992636
 20
40.759302
  0
POINT
  5
20011
100
AcDbEntity
  8
0
100
AcDbPoint
 10
-74.007758
 20
40.707657
  0
POINT
  5
20012
100
AcDbEntity
  8
0
100
AcDbPoint
 10
-74.002958
 20
40.718112
  0
POINT
  5
20013
100
AcDbEntity
  8
0
100
AcDbPoint
 10
-73.989773
 20
40.739109
  0
POINT
  5
20014
100
AcDbEntity
  8
0
100
AcDbPoint
 10
-73.991829
 20
40.746602
  0
POINT
  5
20015
100
AcDbEntity
  8
0
100
AcDbPoint
 10
-73.983973
 20
40.760103
  0
POINT
  5
20016
100
AcDbEntity
  8
0
100
AcDbPoint
 10
-73.965797
 20
40.803795
  0
POINT
  5
20017
100
AcDbEntity
  8
0
100
AcDbPoint
 10
-73.996547
 20
40.740493
  0
POINT
  5
20018
100
AcDbEntity
  8
0
100
AcDbPoint
 10
-73.953849
 20
40.813002
  0
POINT
  5
20019
100
AcDbEntity
  8
0
100
AcDbPoint
 10
-73.986122
 20
40.718943
  0
POINT
  5
2001A
100
AcDbEntity
  8
0
100
AcDbPoint
 10
-73.986122
 20
40.718943
  0
POINT
  5
2001B
100
AcDbEntity
  8
0
100
AcDbPoint
 10
-74.012909
 20
40.70627
  0
POINT
  5
2001C
100
AcDbEntity
  8
0
100
AcDbPoint
 10
-73.964447
 20
40.754801
  0
POINT
  5
2001D
100
AcDbEntity
  8
0
100
AcDbPoint
 10
-73.947936
 20
40.788786
  0
POINT
  5
2001E
100
AcDbEntity
  8
0
100
AcDbPoint
 10
-73.993254
 20
40.758682
  0
POINT
  5
2001F
100
AcDbEntity
  8
0
100
AcDbPoint
 10
-73.954342
 20
40.779846
  0
POINT
  5
20020
100
AcDbEntity
  8
0
100
AcDbPoint
 10
-73.983684
 20
40.761964
  0
POINT
  5
20021
100
AcDbEntity
  8
0
100
AcDbPoint
 10
-73.988559
 20
40.750999
  0
POINT
  5
20022
100
AcDbEntity
  8
0
100
AcDbPoint
 10
-74.011041
 20
40.708546
  0
POINT
  5
20023
100
AcDbEntity
  8
0
100
AcDbPoint
 10
-73.984843
 20
40.75886
  0
POINT
  5
20024
100
AcDbEntity
  8
0
100
AcDbPoint
 10
-73.998138
 20
40.723835
  0
POINT
  5
20025
100
AcDbEntity
  8
0
100
AcDbPoint
 10
-73.990832
 20
40.757661
  0
POINT
  5
20026
100
AcDbEntity
  8
0
100
AcDbPoint
 10
-73.992417
 20
40.753612
  0
POINT
  5
20027
100
AcDbEntity
  8
0
100
AcDbPoint
 10
-73.992417
 20
40.753612
  0
POINT
  5
20028
100
AcDbEntity
  8
0
100
AcDbPoint
 10
-73.990331
 20
40.726563
  0
POINT
  5
20029
100
AcDbEntity
  8
0
100
AcDbPoint
 10
-73.994222
 20
40.748417
  0
POINT
  5
2002A
100
AcDbEntity
  8
0
100
AcDbPoint
 10
-74.012375
 20
40.704983
  0
POINT
  5
2002B
100
AcDbEntity
  8
0
100
AcDbPoint
 10
-73.984182
 20
40.763125
  0
POINT
  5
2002C
100
AcDbEntity
  8
0
100
AcDbPoint
 10
-73.984691
 20
40.745402
  0
POINT
  5
2002D
100
AcDbEntity
  8
0
100
AcDbPoint
 10
-73.948837
 20
40.753508
  0
POINT
  5
2002E
100
AcDbEntity
  8
0
100
AcDbPoint
 10
-73.982412
 20
40.778954
  0
POINT
  5
2002F
100
AcDbEntity
  8
0
100
AcDbPoint
 10
-73.969586
 20
40.796267
  0
POINT
  5
20030
100
AcDbEntity
  8
0
100
AcDbPoint
 10
-73.983037
 20
40.764261
  0
POINT
  5
20031
100
AcDbEntity
  8
0
100
AcDbPoint
 10
-73.98012
 20
40.78727
  0
POINT
  5
20032
100
AcDbEntity
  8
0
100
AcDbPoint
 10
-73.961262
 20
40.776857
  0
POINT
  5
20033
100
AcDbEntity
  8
0
100
AcDbPoint
 10
-73.986587
 20
40.704313
  0
POINT
  5
20034
100
AcDbEntity
  8
0
100
AcDbPoint
 10
-73.93313
 20
40.74212
  0
POINT
  5
20035
100
AcDbEntity
  8
0
100
AcDbPoint
 10
-73.96806
 20
40.770365
  0
POINT
  5
20036
100
AcDbEntity
  8
0
100
AcDbPoint
 10
-73.983547
 20
40.757946
  0
POINT
  5
20037
100
AcDbEntity
  8
0
100
AcDbPoint
 10
-73.982862
 20
40.728102
  0
POINT
  5
20038
100
AcDbEntity
  8
0
100
AcDbPoint
 10
-74.013731
 20
40.705354
  0
POINT
  5
20039
100
AcDbEntity
  8
0
100
AcDbPoint
 10
-73.998532
 20
40.728575
  0
POINT
  5
2003A
100
AcDbEntity
  8
0
100
AcDbPoint
 10
-74.007892
 20
40.712265
  0
POINT
  5
2003B
100
AcDbEntity
  8
0
100
AcDbPoint
 10
-73.993454
 20
40.737677
  0
POINT
  5
2003C
100
AcDbEntity
  8
0
100
AcDbPoint
 10
-73.993185
 20
40.758652
  0
POINT
  5
2003D
100
AcDbEntity
  8
0
100
AcDbPoint
 10
-73.992636
 20
40.759302
  0
POINT
  5
2003E
100
AcDbEntity
  8
0
100
AcDbPoint
 10
-73.997023
 20
40.747294
  0
POINT
  5
2003F
100
AcDbEntity
  8
0
100
AcDbPoint
 10
-73.953685
 20
40.81029
  0
POINT
  5
20040
100
AcDbEntity
  8
0
100
AcDbPoint
 10
-73.991009
 20
40.753632
  0
POINT
  5
20041
100
AcDbEntity
  8
0
100
AcDbPoint
 10
-73.983003
 20
40.769303
  0
POINT
  5
20042
100
AcDbEntity
  8
0
100
AcDbPoint
 10
-73.990468
 20
40.75423
  0
POINT
  5
20043
100
AcDbEntity
  8
0
100
AcDbPoint
 10
-74.008129
 20
40.73273
  0
POINT
  5
20044
100
AcDbEntity
  8
0
100
AcDbPoint
 10
-73.988482
 20
40.755802
  0
POINT
  5
20045
100
AcDbEntity
  8
0
100
AcDbPoint
 10
-73.969447
 20
40.752818
  0
POINT
  5
20046
100
AcDbEntity
  8
0
100
AcDbPoint
 10
-73.965563
 20
40.768739
  0
POINT
  5
20047
100
AcDbEntity
  8
0
100
AcDbPoint
 10
-73.951992
 20
40.793072
  0
POINT
  5
20048
100
AcDbEntity
  8
0
100
AcDbPoint
 10
-73.993394
 20
40.766183
  0
POINT
  5
20049
100
AcDbEntity
  8
0
100
AcDbPoint
 10
-73.985927
 20
40.721174
  0
POINT
  5
2004A
100
AcDbEntity
  8
0
100
AcDbPoint
 10
-73.958752
 20
40.783345
  0
POINT
  5
2004B
100
AcDbEntity
  8
0
100
AcDbPoint
 10
-73.990486
 20
40.724716
  0
POINT
  5
2004C
100
AcDbEntity
  8
0
100
AcDbPoint
 10
-73.990285
 20
40.743523
  0
POINT
  5
2004D
100
AcDbEntity
  8
0
100
AcDbPoint
 10
-74.003934
 20
40.750893
  0
POINT
  5
2004E
100
AcDbEntity
  8
0
100
AcDbPoint
 10
-74.004654
 20
40.719084
  0
POINT
  5
2004F
100
AcDbEntity
  8
0
100
AcDbPoint
 10
-73.95021
 20
40.809778
  0
POINT
  5
20050
100
AcDbEntity
  8
0
100
AcDbPoint
 10
-73.997478
 20
40.724612
  0
POINT
  5
20051
100
AcDbEntity
  8
0
100
AcDbPoint
 10
-73.995706
 20
40.73054
  0
POINT
  5
20052
100
AcDbEntity
  8
0
100
AcDbPoint
 10
-73.997157
 20
40.72496
  0
POINT
  5
20053
100
AcDbEntity
  8
0
100
AcDbPoint
 10
-73.980023
 20
40.750619
  0
POINT
  5
20054
100
AcDbEntity
  8
0
100
AcDbPoint
 10
-73.955138
 20
40.78765
  0
POINT
  5
20055
100
AcDbEntity
  8
0
100
AcDbPoint
 10
-74.001147
 20
40.722419
  0
POINT
  5
20056
100
AcDbEntity
  8
0
100
AcDbPoint
 10
-73.927092
 20
40.819057
  0
POINT
  5
20057
100
AcDbEntity
  8
0
100
AcDbPoint
 10
-73.95749
 20
40.735643
  0
POINT
  5
20058
100
AcDbEntity
  8
0
100
AcDbPoint
 10
-74.006414
 20
40.719748
  0
POINT
  5
20059
100
AcDbEntity
  8
0
100
AcDbPoint
 10
-73.988976
 20
40.740426
  0
POINT
  5
2005A
100
AcDbEntity
  8
0
100
AcDbPoint
 10
-73.990523
 20
40.767432
  0
POINT
  5
2005B
100
AcDbEntity
  8
0
100
AcDbPoint
 10
-73.997305
 20
40.724818
  0
POINT
  5
2005C
100
AcDbEntity
  8
0
100
AcDbPoint
 10
-73.980932
 20
40.754371
  0
POINT
  5
2005D
100
AcDbEntity
  8
0
100
AcDbPoint
 10
-73.984055
 20
40.703018
  0
POINT
  5
2005E
100
AcDbEntity
  8
0
100
AcDbPoint
 10
-73.99062
 20
40.746882
  0
POINT
  5
2005F
100
AcDbEntity
  8
0
100
AcDbPoint
 10
-73.99776
 20
40.718455
  0
POINT
  5
20060
100
AcDbEntity
  8
0
100
AcDbPoint
 10
-73.930025
 20
40.764312
  0
POINT
  5
20061
100
AcDbEntity
  8
0
100
AcDbPoint
 10
-73.979601
 20
40.725963
  0
POINT
  5
20062
100
AcDbEntity
  8
0
100
AcDbPoint
 10
-73.994422
 20
40.734877
  0
POINT
  5
20063
100
AcDbEntity
  8
0
100
AcDbPoint
 10
-74.003141
 20
40.705357
  0
POINT
  5
20064
100
AcDbEntity
  8
0
100
AcDbPoint
 10
-74.003999
 20
40.750094
  0
POINT
  5
20065
100
AcDbEntity
  8
0
100
AcDbPoint
 10
-73.990863
 20
40.713311
  0
POINT
  5
20066
100
AcDbEntity
  8
0
100
AcDbPoint
 10
-74.003999
 20
40.750094
  0
POINT
  5
20067
100
AcDbEntity
  8
0
100
AcDbPoint
 10
-73.980896
 20
40.765894
  0
POINT
  5
20068
100
AcDbEntity
  8
0
100
AcDbPoint
 10
-74.011552
 20
40.704541
  0
POINT
  5
20069
100
AcDbEntity
  8
0
100
AcDbPoint
 10
-73.946001
 20
40.792606
  0
POINT
  5
2006A
100
AcDbEntity
  8
0
100
AcDbPoint
 10
-73.986587
 20
40.704313
  0
POINT
  5
2006B
100
AcDbEntity
  8
0
100
AcDbPoint
 10
-73.980145
 20
40.778865
  0
POINT
  5
2006C
100
AcDbEntity
  8
0
100
AcDbPoint
 10
-73.993937
 20
40.748299
  0
POINT
  5
2006D
100
AcDbEntity
  8
0
100
AcDbPoint
 10
-74.001888
 20
40.74758
  0
POINT
  5
2006E
100
AcDbEntity
  8
0
100
AcDbPoint
 10
-74.006291
 20
40.74986
  0
POINT
  5
2006F
100
AcDbEntity
  8
0
100
AcDbPoint
 10
-73.943986
 20
40.809844
  0
POINT
  5
20070
100
AcDbEntity
  8
0
100
AcDbPoint
 10
-73.991
 20
40.765975
  0
POINT
  5
20071
100
AcDbEntity
  8
0
100
AcDbPoint
 10
-73.986122
 20
40.718943
  0
POINT
  5
20072
100
AcDbEntity
  8
0
100
AcDbPoint
 10
-73.986122
 20
40.718943
  0
POINT
  5
20073
100
AcDbEntity
  8
0
100
AcDbPoint
 10
-73.951883
 20
40.804649
  0
POINT
  5
20074
100
AcDbEntity
  8
0
100
AcDbPoint
 10
-74.002233
 20
40.717634
  0
POINT
  5
20075
100
AcDbEntity
  8
0
100
AcDbPoint
 10
-73.987077
 20
40.703784
  0
POINT
  5
20076
100
AcDbEntity
  8
0
100
AcDbPoint
 10
-73.975584
 20
40.760324
  0
POINT
  5
20077
100
AcDbEntity
  8
0
100
AcDbPoint
 10
-73.992417
 20
40.753612
  0
POINT
  5
20078
100
AcDbEntity
  8
0
100
AcDbPoint
 10
-73.99363
 20
40.744129
  0
POINT
  5
20079
100
AcDbEntity
  8
0
100
AcDbPoint
 10
-73.993591
 20
40.743248
  0
POINT
  5
2007A
100
AcDbEntity
  8
0
100
AcDbPoint
 10
-73.952785
 20
40.810512
  0
POINT
  5
2007B
100
AcDbEntity
  8
0
100
AcDbPoint
 10
-73.989115
 20
40.729206
  0
POINT
  5
2007C
100
AcDbEntity
  8
0
100
AcDbPoint
 10
-73.990705
 20
40.731413
  0
POINT
  5
2007D
100
AcDbEntity
  8
0
100
AcDbPoint
 10
-73.986122
 20
40.718943
  0
POINT
  5
2007E
100
AcDbEntity
  8
0
100
AcDbPoint
 10
-74.008129
 20
40.73273
  0
POINT
  5
2007F
100
AcDbEntity
  8
0
100
AcDbPoint
 10
-73.956115
 20
40.71932
  0
POINT
  5
20080
100
AcDbEntity
  8
0
100
AcDbPoint
 10
-73.995775
 20
40.734328
  0
POINT
  5
20081
100
AcDbEntity
  8
0
100
AcDbPoint
 10
-73.964594
 20
40.770032
  0
POINT
  5
20082
100
AcDbEntity
  8
0
100
AcDbPoint
 10
-74.002644
 20
40.718488
  0
POINT
  5
20083
100
AcDbEntity
  8
0
100
AcDbPoint
 10
-74.010191
 20
40.718068
  0
POINT
  5
20084
100
AcDbEntity
  8
0
100
AcDbPoint
 10
-73.996909
 20
40.714906
  0
POINT
  5
20085
100
AcDbEntity
  8
0
100
AcDbPoint
 10
-74.010191
 20
40.718068
  0
POINT
  5
20086
100
AcDbEntity
  8
0
100
AcDbPoint
 10
-73.991602
 20
40.74568
  0
POINT
  5
20087
100
AcDbEntity
  8
0
100
AcDbPoint
 10
-73.990324
 20
40.747582
  0
POINT
  5
20088
100
AcDbEntity
  8
0
100
AcDbPoint
 10
-73.978465
 20
40.757426
  0
POINT
  5
20089
100
AcDbEntity
  8
0
100
AcDbPoint
 10
-73.97688
 20
40.737878
  0
POINT
  5
2008A
100
AcDbEntity
  8
0
100
AcDbPoint
 10
-73.96517
 20
40.759264
  0
POINT
  5
2008B
100
AcDbEntity
  8
0
100
AcDbPoint
 10
-73.946027
 20
40.792608
  0
POINT
  5
2008C
100
AcDbEntity
  8
0
100
AcDbPoint
 10
-74.003976
 20
40.725677
  0
POINT
  5
2008D
100
AcDbEntity
  8
0
100
AcDbPoint
 10
-74.004659
 20
40.741915
  0
POINT
  5
2008E
100
AcDbEntity
  8
0
100
AcDbPoint
 10
-73.985403
 20
40.723502
  0
POINT
  5
2008F
100
AcDbEntity
  8
0
100
AcDbPoint
 10
-73.989678
 20
40.725827
  0
POINT
  5
20090
100
AcDbEntity
  8
0
100
AcDbPoint
 10
-73.96307
 20
40.71364
  0
POINT
  5
20091
100
AcDbEntity
  8
0
100
AcDbPoint
 10
-74.002976
 20
40.725748
  0
POINT
  5
20092
100
AcDbEntity
  8
0
100
AcDbPoint
 10
-73.998156
 20
40.737921
  0
POINT
  5
20093
100
AcDbEntity
  8
0
100
AcDbPoint
 10
-73.985109
 20
40.749544
  0
POINT
  5
20094
100
AcDbEntity
  8
0
100
AcDbPoint
 10
-73.981189
 20
40.777537
  0
POINT
  5
20095
100
AcDbEntity
  8
0
100
AcDbPoint
 10
-73.972525
 20
40.78917
  0
POINT
  5
20096
100
AcDbEntity
  8
0
100
AcDbPoint
 10
-73.988974
 20
40.771824
  0
POINT
  5
20097
100
AcDbEntity
  8
0
100
AcDbPoint
 10
-73.953168
 20
40.769984
  0
POINT
  5
20098
100
AcDbEntity
  8
0
100
AcDbPoint
 10
-73.989911
 20
40.738604
  0
POINT
  5
20099
100
AcDbEntity
  8
0
100
AcDbPoint
 10
-73.989911
 20
40.738604
  0
POINT
  5
2009A
100
AcDbEntity
  8
0
100
AcDbPoint
 10
-73.967801
 20
40.797587
  0
POINT
  5
2009B
100
AcDbEntity
  8
0
100
AcDbPoint
 10
-74.007516
 20
40.734943
  0
POINT
  5
2009C
100
AcDbEntity
  8
0
100
AcDbPoint
 10
-73.994875
 20
40.70309
  0
POINT
  5
2009D
100
AcDbEntity
  8
0
100
AcDbPoint
 10
-73.9932
 20
40.753755
  0
POINT
  5
2009E
100
AcDbEntity
  8
0
100
AcDbPoint
 10
-73.996759
 20
40.756058
  0
POINT
  5
2009F
100
AcDbEntity
  8
0
100
AcDbPoint
 10
-74.002958
 20
40.718112
  0
POINT
  5
200A0
100
AcDbEntity
  8
0
100
AcDbPoint
 10
-73.964795
 20
40.807517
  0
POINT
  5
200A1
100
AcDbEntity
  8
0
100
AcDbPoint
 10
-73.944411
 20
40.815595
  0
POINT
  5
200A2
100
AcDbEntity
  8
0
100
AcDbPoint
 10
-73.989123
 20
40.743254
  0
POINT
  5
200A3
100
AcDbEntity
  8
0
100
AcDbPoint
 10
-74.004181
 20
40.713001
  0
POINT
  5
200A4
100
AcDbEntity
  8
0
100
AcDbPoint
 10
-73.990412
 20
40.761457
  0
POINT
  5
200A5
100
AcDbEntity
  8
0
100
AcDbPoint
 10
-74.005019
 20
40.738744
  0
POINT
  5
200A6
100
AcDbEntity
  8
0
100
AcDbPoint
 10
-73.942179
 20
40.81553
  0
POINT
  5
200A7
100
AcDbEntity
  8
0
100
AcDbPoint
 10
-73.995473
 20
40.762132
  0
POINT
  5
200A8
100
AcDbEntity
  8
0
100
AcDbPoint
 10
-73.968308
 20
40.803236
  0
POINT
  5
200A9
100
AcDbEntity
  8
0
100
AcDbPoint
 10
-74.002958
 20
40.718112
  0
POINT
  5
200AA
100
AcDbEntity
  8
0
100
AcDbPoint
 10
-73.975316
 20
40.792388
  0
POINT
  5
200AB
100
AcDbEntity
  8
0
100
AcDbPoint
 10
-74.011631
 20
40.701695
  0
POINT
  5
200AC
100
AcDbEntity
  8
0
100
AcDbPoint
 10
-73.958946
 20
40.702169
  0
POINT
  5
200AD
100
AcDbEntity
  8
0
100
AcDbPoint
 10
-73.994631
 20
40.726901
  0
POINT
  5
200AE
100
AcDbEntity
  8
0
100
AcDbPoint
 10
-74.012117
 20
40.716838
  0
POINT
  5
200AF
100
AcDbEntity
  8
0
100
AcDbPoint
 10
-73.992373
 20
40.724804
  0
POINT
  5
200B0
100
AcDbEntity
  8
0
100
AcDbPoint
 10
-74.005141
 20
40.7182
  0
POINT
  5
200B1
100
AcDbEntity
  8
0
100
AcDbPoint
 10
-73.951826
 20
40.792888
  0
POINT
  5
200B2
100
AcDbEntity
  8
0
100
AcDbPoint
 10
-73.968879
 20
40.756658
  0
POINT
  5
200B3
100
AcDbEntity
  8
0
100
AcDbPoint
 10
-73.987896
 20
40.761399
  0
POINT
  5
200B4
100
AcDbEntity
  8
0
100
AcDbPoint
 10
-73.945704
 20
40.807457
  0
POINT
  5
200B5
100
AcDbEntity
  8
0
100
AcDbPoint
 10
-73.997726
 20
40.753991
  0
POINT
  5
200B6
100
AcDbEntity
  8
0
100
AcDbPoint
 10
-73.957164
 20
40.821383
  0
POINT
  5
200B7
100
AcDbEntity
  8
0
100
AcDbPoint
 10
-73.983973
 20
40.760103
  0
POINT
  5
200B8
100
AcDbEntity
  8
0
100
AcDbPoint
 10
-73.99324
 20
40.754573
  0
POINT
  5
200B9
100
AcDbEntity
  8
0
100
AcDbPoint
 10
-73.971505
 20
40.792842
  0
POINT
  5
200BA
100
AcDbEntity
  8
0
100
AcDbPoint
 10
-73.986587
 20
40.704313
  0
POINT
  5
200BB
100
AcDbEntity
  8
0
100
AcDbPoint
 10
-73.960889
 20
40.711145
  0
POINT
  5
200BC
100
AcDbEntity
  8
0
100
AcDbPoint
 10
-73.992387
 20
40.69502
  0
POINT
  5
200BD
100
AcDbEntity
  8
0
100
AcDbPoint
 10
-73.986681
 20
40.702763
  0
POINT
  5
200BE
100
AcDbEntity
  8
0
100
AcDbPoint
 10
-73.974986
 20
40.69802
  0
POINT
  5
200BF
100
AcDbEntity
  8
0
100
AcDbPoint
 10
-73.986587
 20
40.704313
  0
POINT
  5
200C0
100
AcDbEntity
  8
0
100
AcDbPoint
 10
-73.945681
 20
40.716568
  0
POINT
  5
200C1
100
AcDbEntity
  8
0
100
AcDbPoint
 10
-73.955904
 20
40.737751
  0
POINT
  5
200C2
100
AcDbEntity
  8
0
100
AcDbPoint
 10
-73.987401
 20
40.728956
  0
POINT
  5
200C3
100
AcDbEntity
  8
0
100
AcDbPoint
 10
-73.990832
 20
40.757661
  0
POINT
  5
200C4
100
AcDbEntity
  8
0
100
AcDbPoint
 10
-73.989602
 20
40.70273
  0
POINT
  5
200C5
100
AcDbEntity
  8
0
100
AcDbPoint
 10
-73.991
 20
40.765975
  0
POINT
  5
200C6
100
AcDbEntity
  8
0
100
AcDbPoint
 10
-73.985282
 20
40.747428
  0
POINT
  5
200C7
100
AcDbEntity
  8
0
100
AcDbPoint
 10
-73.965099
 20
40.715908
  0
POINT
  5
200C8
100
AcDbEntity
  8
0
100
AcDbPoint
 10
-73.96143
 20
40.816409
  0
POINT
  5
200C9
100
AcDbEntity
  8
0
100
AcDbPoint
 10
-74.006805
 20
40.730587
  0
POINT
  5
200CA
100
AcDbEntity
  8
0
100
AcDbPoint
 10
-73.974745
 20
40.735508
  0
POINT
  5
200CB
100
AcDbEntity
  8
0
100
AcDbPoint
 10
-73.988984
 20
40.733145
  0
POINT
  5
200CC
100
AcDbEntity
  8
0
100
AcDbPoint
 10
-73.99302
 20
40.744681
  0
POINT
  5
200CD
100
AcDbEntity
  8
0
100
AcDbPoint
 10
-73.987111
 20
40.753497
  0
POINT
  5
200CE
100
AcDbEntity
  8
0
100
AcDbPoint
 10
-73.998954
 20
40.718142
  0
POINT
  5
200CF
100
AcDbEntity
  8
0
100
AcDbPoint
 10
-73.991944
 20
40.754296
  0
POINT
  5
200D0
100
AcDbEntity
  8
0
100
AcDbPoint
 10
-74.000996
 20
40.718752
  0
POINT
  5
200D1
100
AcDbEntity
  8
0
100
AcDbPoint
 10
-73.993585
 20
40.695347
  0
POINT
  5
200D2
100
AcDbEntity
  8
0
100
AcDbPoint
 10
-73.996
 20
40.700664
  0
POINT
  5
200D3
100
AcDbEntity
  8
0
100
AcDbPoint
 10
-74.011552
 20
40.704541
  0
POINT
  5
200D4
100
AcDbEntity
  8
0
100
AcDbPoint
 10
-73.983948
 20
40.758116
  0
POINT
  5
200D5
100
AcDbEntity
  8
0
100
AcDbPoint
 10
-73.980445
 20
40.764941
  0
POINT
  5
200D6
100
AcDbEntity
  8
0
100
AcDbPoint
 10
-73.953478
 20
40.771244
  0
POINT
  5
200D7
100
AcDbEntity
  8
0
100
AcDbPoint
 10
-73.963135
 20
40.803951
  0
POINT
  5
200D8
100
AcDbEntity
  8
0
100
AcDbPoint
 10
-73.967291
 20
40.799407
  0
POINT
  5
200D9
100
AcDbEntity
  8
0
100
AcDbPoint
 10
-73.986587
 20
40.704313
  0
POINT
  5
200DA
100
AcDbEntity
  8
0
100
AcDbPoint
 10
-74.004345
 20
40.750259
  0
POINT
  5
200DB
100
AcDbEntity
  8
0
100
AcDbPoint
 10
-73.974202
 20
40.787351
  0
POINT
  5
200DC
100
AcDbEntity
  8
0
100
AcDbPoint
 10
-73.998532
 20
40.728575
  0
POINT
  5
200DD
100
AcDbEntity
  8
0
100
AcDbPoint
 10
-73.991764
 20
40.751483
  0
POINT
  5
200DE
100
AcDbEntity
  8
0
100
AcDbPoint
 10
-73.989491
 20
40.744785
  0
POINT
  5
200DF
100
AcDbEntity
  8
0
100
AcDbPoint
 10
-73.957562
 20
40.77528
  0
POINT
  5
200E0
100
AcDbEntity
  8
0
100
AcDbPoint
 10
-73.998662
 20
40.721252
  0
POINT
  5
200E1
100
AcDbEntity
  8
0
100
AcDbPoint
 10
-73.993454
 20
40.737677
  0
POINT
  5
200E2
100
AcDbEntity
  8
0
100
AcDbPoint
 10
-73.946456
 20
40.716664
  0
POINT
  5
200E3
100
AcDbEntity
  8
0
100
AcDbPoint
 10
-74.013096
 20
40.706045
  0
POINT
  5
200E4
100
AcDbEntity
  8
0
100
AcDbPoint
 10
-73.980848
 20
40.755156
  0
POINT
  5
200E5
100
AcDbEntity
  8
0
100
AcDbPoint
 10
-73.952103
 20
40.784248
  0
POINT
  5
200E6
100
AcDbEntity
  8
0
100
AcDbPoint
 10
-73.986278
 20
40.747475
  0
POINT
  5
200E7
100
AcDbEntity
  8
0
100
AcDbPoint
 10
-73.983591
 20
40.773626
  0
POINT
  5
200E8
100
AcDbEntity
  8
0
100
AcDbPoint
 10
-73.974854
 20
40.753102
  0
POINT
  5
200E9
100
AcDbEntity
  8
0
100
AcDbPoint
 10
-73.965481
 20
40.801215
  0
POINT
  5
200EA
100
AcDbEntity
  8
0
100
AcDbPoint
 10
-73.974295
 20
40.750714
  0
POINT
  5
200EB
100
AcDbEntity
  8
0
100
AcDbPoint
 10
-74.013374
 20
40.705752
  0
POINT
  5
200EC
100
AcDbEntity
  8
0
100
AcDbPoint
 10
-74.006374
 20
40.747733
  0
POINT
  5
200ED
100
AcDbEntity
  8
0
100
AcDbPoint
 10
-73.986984
 20
40.719143
  0
POINT
  5
200EE
100
AcDbEntity
  8
0
100
AcDbPoint
 10
-73.998784
 20
40.744901
  0
POINT
  5
200EF
100
AcDbEntity
  8
0
100
AcDbPoint
 10
-74.005203
 20
40.731451
  0
POINT
  5
200F0
100
AcDbEntity
  8
0
100
AcDbPoint
 10
-73.978335
 20
40.759204
  0
POINT
  5
200F1
100
AcDbEntity
  8
0
100
AcDbPoint
 10
-73.980932
 20
40.754371
  0
POINT
  5
200F2
100
AcDbEntity
  8
0
100
AcDbPoint
 10
-73.946215
 20
40.79235
  0
POINT
  5
200F3
100
AcDbEntity
  8
0
100
AcDbPoint
 10
-73.986215
 20
40.739265
  0
POINT
  5
200F4
100
AcDbEntity
  8
0
100
AcDbPoint
 10
-73.946309
 20
40.823075
  0
POINT
  5
200F5
100
AcDbEntity
  8
0
100
AcDbPoint
 10
-73.976961
 20
40.785946
  0
POINT
  5
200F6
100
AcDbEntity
  8
0
100
AcDbPoint
 10
-74.008006
 20
40.7274
  0
POINT
  5
200F7
100
AcDbEntity
  8
0
100
AcDbPoint
 10
-74.003999
 20
40.750094
  0
POINT
  5
200F8
100
AcDbEntity
  8
0
100
AcDbPoint
 10
-74.014291
 20
40.708494
  0
POINT
  5
200F9
100
AcDbEntity
  8
0
100
AcDbPoint
 10
-73.998662
 20
40.712828
  0
POINT
  5
200FA
100
AcDbEntity
  8
0
100
AcDbPoint
 10
-74.000848
 20
40.720602
  0
POINT
  5
200FB
100
AcDbEntity
  8
0
100
AcDbPoint
 10
-74.002482
 20
40.71871
  0
POINT
  5
200FC
100
AcDbEntity
  8
0
100
AcDbPoint
 10
-73.996562
 20
40.712115
  0
POINT
  5
200FD
100
AcDbEntity
  8
0
100
AcDbPoint
 10
-73.925887
 20
40.752096
  0
POINT
  5
200FE
100
AcDbEntity
  8
0
100
AcDbPoint
 10
-74.004452
 20
40.718664
  0
POINT
  5
200FF
100
AcDbEntity
  8
0
100
AcDbPoint
 10
-74.001205
 20
40.738308
  0
POINT
  5
20100
100
AcDbEntity
  8
0
100
AcDbPoint
 10
-73.996558
 20
40.725699
  0
POINT
  5
20101
100
AcDbEntity
  8
0
100
AcDbPoint
 10
-73.983962
 20
40.761574
  0
POINT
  5
20102
100
AcDbEntity
  8
0
100
AcDbPoint
 10
-73.966824
 20
40.707584
  0
POINT
  5
20103
100
AcDbEntity
  8
0
100
AcDbPoint
 10
-73.991479
 20
40.745628
  0
POINT
  5
20104
100
AcDbEntity
  8
0
100
AcDbPoint
 10
-74.010907
 20
40.706186
  0
POINT
  5
20105
100
AcDbEntity
  8
0
100
AcDbPoint
 10
-73.983201
 20
40.771414
  0
POINT
  5
20106
100
AcDbEntity
  8
0
100
AcDbPoint
 10
-73.95075
 20
40.818101
  0
POINT
  5
20107
100
AcDbEntity
  8
0
100
AcDbPoint
 10
-73.983145
 20
40.764308
  0
POINT
  5
20108
100
AcDbEntity
  8
0
100
AcDbPoint
 10
-73.991449
 20
40.760038
  0
POINT
  5
20109
100
AcDbEntity
  8
0
100
AcDbPoint
 10
-73.989281
 20
40.723631
  0
POINT
  5
2010A
100
AcDbEntity
  8
0
100
AcDbPoint
 10
-73.970516
 20
40.767711
  0
POINT
  5
2010B
100
AcDbEntity
  8
0
100
AcDbPoint
 10
-73.999015
 20
40.722797
  0
POINT
  5
2010C
100
AcDbEntity
  8
0
100
AcDbPoint
 10
-74.006154
 20
40.717862
  0
POINT
  5
2010D
100
AcDbEntity
  8
0
100
AcDbPoint
 10
-73.989073
 20
40.743523
  0
POINT
  5
2010E
100
AcDbEntity
  8
0
100
AcDbPoint
 10
-73.986122
 20
40.718943
  0
POINT
  5
2010F
100
AcDbEntity
  8
0
100
AcDbPoint
 10
-73.992697
 20
40.76671
  0
POINT
  5
20110
100
AcDbEntity
  8
0
100
AcDbPoint
 10
-73.996878
 20
40.744626
  0
POINT
  5
20111
100
AcDbEntity
  8
0
100
AcDbPoint
 10
-73.991907
 20
40.729327
  0
POINT
  5
20112
100
AcDbEntity
  8
0
100
AcDbPoint
 10
-73.99266
 20
40.738859
  0
POINT
  5
20113
100
AcDbEntity
  8
0
100
AcDbPoint
 10
-73.967587
 20
40.69688
  0
POINT
  5
20114
100
AcDbEntity
  8
0
100
AcDbPoint
 10
-74.012761
 20
40.706449
  0
POINT
  5
20115
100
AcDbEntity
  8
0
100
AcDbPoint
 10
-73.960401
 20
40.760589
  0
POINT
  5
20116
100
AcDbEntity
  8
0
100
AcDbPoint
 10
-73.956685
 20
40.813876
  0
POINT
  5
20117
100
AcDbEntity
  8
0
100
AcDbPoint
 10
-73.988681
 20
40.774058
  0
POINT
  5
20118
100
AcDbEntity
  8
0
100
AcDbPoint
 10
-74.013731
 20
40.705354
  0
POINT
  5
20119
100
AcDbEntity
  8
0
100
AcDbPoint
 10
-73.953851
 20
40.727372
  0
POINT
  5
2011A
100
AcDbEntity
  8
0
100
AcDbPoint
 10
-73.976518
 20
40.79423
  0
POINT
  5
2011B
100
AcDbEntity
  8
0
100
AcDbPoint
 10
-73.950004
 20
40.771967
  0
POINT
  5
2011C
100
AcDbEntity
  8
0
100
AcDbPoint
 10
-73.968628
 20
40.760726
  0
POINT
  5
2011D
100
AcDbEntity
  8
0
100
AcDbPoint
 10
-73.992864
 20
40.755237
  0
POINT
  5
2011E
100
AcDbEntity
  8
0
100
AcDbPoint
 10
-73.986678
 20
40.733092
  0
POINT
  5
2011F
100
AcDbEntity
  8
0
100
AcDbPoint
 10
-73.991163
 20
40.738225
  0
POINT
  5
20120
100
AcDbEntity
  8
0
100
AcDbPoint
 10
-74.003046
 20
40.740866
  0
POINT
  5
20121
100
AcDbEntity
  8
0
100
AcDbPoint
 10
-73.990259
 20
40.721976
  0
POINT
  5
20122
100
AcDbEntity
  8
0
100
AcDbPoint
 10
-73.957866
 20
40.784607
  0
POINT
  5
20123
100
AcDbEntity
  8
0
100
AcDbPoint
 10
-73.943939
 20
40.814518
  0
POINT
  5
20124
100
AcDbEntity
  8
0
100
AcDbPoint
 10
-73.987896
 20
40.761399
  0
POINT
  5
20125
100
AcDbEntity
  8
0
100
AcDbPoint
 10
-74.008129
 20
40.73273
  0
POINT
  5
20126
100
AcDbEntity
  8
0
100
AcDbPoint
 10
-73.998354
 20
40.749482
  0
POINT
  5
20127
100
AcDbEntity
  8
0
100
AcDbPoint
 10
-73.995083
 20
40.7203
  0
POINT
  5
20128
100
AcDbEntity
  8
0
100
AcDbPoint
 10
-73.969586
 20
40.796267
  0
POINT
  5
20129
100
AcDbEntity
  8
0
100
AcDbPoint
 10
-73.980448
 20
40.752417
  0
POINT
  5
2012A
100
AcDbEntity
  8
0
100
AcDbPoint
 10
-73.989588
 20
40.748084
  0
POINT
  5
2012B
100
AcDbEntity
  8
0
100
AcDbPoint
 10
-73.992417
 20
40.753612
  0
POINT
  5
2012C
100
AcDbEntity
  8
0
100
AcDbPoint
 10
-73.995173
 20
40.726204
  0
POINT
  5
2012D
100
AcDbEntity
  8
0
100
AcDbPoint
 10
-73.992781
 20
40.723629
  0
POINT
  5
2012E
100
AcDbEntity
  8
0
100
AcDbPoint
 10
-74.010286
 20
40.705115
  0
POINT
  5
2012F
100
AcDbEntity
  8
0
100
AcDbPoint
 10
-73.990807
 20
40.726785
  0
POINT
  5
20130
100
AcDbEntity
  8
0
100
AcDbPoint
 10
-73.98004
 20
40.729391
  0
POINT
  5
20131
100
AcDbEntity
  8
0
100
AcDbPoint
 10
-73.990452
 20
40.736976
  0
POINT
  5
20132
100
AcDbEntity
  8
0
100
AcDbPoint
 10
-73.94904
 20
40.781598
  0
POINT
  5
20133
100
AcDbEntity
  8
0
100
AcDbPoint
 10
-73.980436
 20
40.745838
  0
POINT
  5
20134
100
AcDbEntity
  8
0
100
AcDbPoint
 10
-73.976944
 20
40.751807
  0
POINT
  5
20135
100
AcDbEntity
  8
0
100
AcDbPoint
 10
-73.994357
 20
40.725825
  0
POINT
  5
20136
100
AcDbEntity
  8
0
100
AcDbPoint
 10
-73.978253
 20
40.723836
  0
POINT
  5
20137
100
AcDbEntity
  8
0
100
AcDbPoint
 10
-74.004132
 20
40.749364
  0
POINT
  5
20138
100
AcDbEntity
  8
0
100
AcDbPoint
 10
-73.990594
 20
40.726695
  0
POINT
  5
20139
100
AcDbEntity
  8
0
100
AcDbPoint
 10
-74.008494
 20
40.736955
  0
POINT
  5
2013A
100
AcDbEntity
  8
0
100
AcDbPoint
 10
-73.992636
 20
40.759302
  0
POINT
  5
2013B
100
AcDbEntity
  8
0
100
AcDbPoint
 10
-73.988975
 20
40.70251
  0
POINT
  5
2013C
100
AcDbEntity
  8
0
100
AcDbPoint
 10
-73.93592
 20
40.797936
  0
POINT
  5
2013D
100
AcDbEntity
  8
0
100
AcDbPoint
 10
-73.98012
 20
40.78727
  0
POINT
  5
2013E
100
AcDbEntity
  8
0
100
AcDbPoint
 10
-73.976261
 20
40.786001
  0
POINT
  5
2013F
100
AcDbEntity
  8
0
100
AcDbPoint
 10
-73.986739
 20
40.70184
  0
POINT
  5
20140
100
AcDbEntity
  8
0
100
AcDbPoint
 10
-73.986587
 20
40.704313
  0
POINT
  5
20141
100
AcDbEntity
  8
0
100
AcDbPoint
 10
-73.974067
 20
40.790642
  0
POINT
  5
20142
100
AcDbEntity
  8
0
100
AcDbPoint
 10
-73.994502
 20
40.76009
  0
POINT
  5
20143
100
AcDbEntity
  8
0
100
AcDbPoint
 10
-73.96571
 20
40.804624
  0
POINT
  5
20144
100
AcDbEntity
  8
0
100
AcDbPoint
 10
-73.935833
 20
40.757018
  0
POINT
  5
20145
100
AcDbEntity
  8
0
100
AcDbPoint
 10
-74.011552
 20
40.704541
  0
POINT
  5
20146
100
AcDbEntity
  8
0
100
AcDbPoint
 10
-73.995503
 20
40.695133
  0
POINT
  5
20147
100
AcDbEntity
  8
0
100
AcDbPoint
 10
-74.006089
 20
40.714417
  0
POINT
  5
20148
100
AcDbEntity
  8
0
100
AcDbPoint
 10
-74.005764
 20
40.707671
  0
POINT
  5
20149
100
AcDbEntity
  8
0
100
AcDbPoint
 10
-73.977769
 20
40.712914
  0
POINT
  5
2014A
100
AcDbEntity
  8
0
100
AcDbPoint
 10
-73.988432
 20
40.730471
  0
POINT
  5
2014B
100
AcDbEntity
  8
0
100
AcDbPoint
 10
-73.98474
 20
40.735518
  0
POINT
  5
2014C
100
AcDbEntity
  8
0
100
AcDbPoint
 10
-74.000559
 20
40.738915
  0
POINT
  5
2014D
100
AcDbEntity
  8
0
100
AcDbPoint
 10
-73.99124
 20
40.757834
  0
POINT
  5
2014E
100
AcDbEntity
  8
0
100
AcDbPoint
 10
-74.011552
 20
40.704541
  0
POINT
  5
2014F
100
AcDbEntity
  8
0
100
AcDbPoint
 10
-73.960772
 20
40.817051
  0
POINT
  5
20150
100
AcDbEntity
  8
0
100
AcDbPoint
 10
-73.978341
 20
40.762731
  0
POINT
  5
20151
100
AcDbEntity
  8
0
100
AcDbPoint
 10
-73.951292
 20
40.782491
  0
POINT
  5
20152
100
AcDbEntity
  8
0
100
AcDbPoint
 10
-73.989897
 20
40.733979
  0
POINT
  5
20153
100
AcDbEntity
  8
0
100
AcDbPoint
 10
-73.983372
 20
40.725234
  0
POINT
  5
20154
100
AcDbEntity
  8
0
100
AcDbPoint
 10
-73.976108
 20
40.777182
  0
POINT
  5
20155
100
AcDbEntity
  8
0
100
AcDbPoint
 10
-73.965955
 20
40.71452
  0
POINT
  5
20156
100
AcDbEntity
  8
0
100
AcDbPoint
 10
-73.994559
 20
40.726036
  0
POINT
  5
20157
100
AcDbEntity
  8
0
100
AcDbPoint
 10
-74.006897
 20
40.717363
  0
POINT
  5
20158
100
AcDbEntity
  8
0
100
AcDbPoint
 10
-73.996193
 20
40.732484
  0
POINT
  5
20159
100
AcDbEntity
  8
0
100
AcDbPoint
 10
-73.989944
 20
40.733114
  0
POINT
  5
2015A
100
AcDbEntity
  8
0
100
AcDbPoint
 10
-74.005756
 20
40.747495
  0
POINT
  5
2015B
100
AcDbEntity
  8
0
100
AcDbPoint
 10
-73.968261
 20
40.758033
  0
POINT
  5
2015C
100
AcDbEntity
  8
0
100
AcDbPoint
 10
-73.974986
 20
40.69802
  0
POINT
  5
2015D
100
AcDbEntity
  8
0
100
AcDbPoint
 10
-73.955341
 20
40.786829
  0
POINT
  5
2015E
100
AcDbEntity
  8
0
100
AcDbPoint
 10
-73.975647
 20
40.745082
  0
POINT
  5
2015F
100
AcDbEntity
  8
0
100
AcDbPoint
 10
-73.977678
 20
40.72672
  0
POINT
  5
20160
100
AcDbEntity
  8
0
100
AcDbPoint
 10
-74.0032
 20
40.724211
  0
POINT
  5
20161
100
AcDbEntity
  8
0
100
AcDbPoint
 10
-73.982429
 20
40.769158
  0
POINT
  5
20162
100
AcDbEntity
  8
0
100
AcDbPoint
 10
-73.964296
 20
40.800734
  0
POINT
  5
20163
100
AcDbEntity
  8
0
100
AcDbPoint
 10
-73.94943
 20
40.747722
  0
POINT
  5
20164
100
AcDbEntity
  8
0
100
AcDbPoint
 10
-73.994502
 20
40.76009
  0
POINT
  5
20165
100
AcDbEntity
  8
0
100
AcDbPoint
 10
-74.00544
 20
40.720404
  0
POINT
  5
20166
100
AcDbEntity
  8
0
100
AcDbPoint
 10
-73.990331
 20
40.726563
  0
POINT
  5
20167
100
AcDbEntity
  8
0
100
AcDbPoint
 10
-74.00154
 20
40.717324
  0
POINT
  5
20168
100
AcDbEntity
  8
0
100
AcDbPoint
 10
-73.985391
 20
40.730789
  0
POINT
  5
20169
100
AcDbEntity
  8
0
100
AcDbPoint
 10
-74.008698
 20
40.723343
  0
POINT
  5
2016A
100
AcDbEntity
  8
0
100
AcDbPoint
 10
-74.005184
 20
40.72008
  0
POINT
  5
2016B
100
AcDbEntity
  8
0
100
AcDbPoint
 10
-74.002753
 20
40.722268
  0
POINT
  5
2016C
100
AcDbEntity
  8
0
100
AcDbPoint
 10
-73.9746
 20
40.78414
  0
POINT
  5
2016D
100
AcDbEntity
  8
0
100
AcDbPoint
 10
-73.986122
 20
40.718943
  0
POINT
  5
2016E
100
AcDbEntity
  8
0
100
AcDbPoint
 10
-73.993402
 20
40.752295
  0
POINT
  5
2016F
100
AcDbEntity
  8
0
100
AcDbPoint
 10
-73.994938
 20
40.730398
  0
POINT
  5
20170
100
AcDbEntity
  8
0
100
AcDbPoint
 10
-73.978211
 20
40.773809
  0
POINT
  5
20171
100
AcDbEntity
  8
0
100
AcDbPoint
 10
-73.992021
 20
40.740136
  0
POINT
  5
20172
100
AcDbEntity
  8
0
100
AcDbPoint
 10
-73.993701
 20
40.72115
  0
POINT
  5
20173
100
AcDbEntity
  8
0
100
AcDbPoint
 10
-73.951826
 20
40.792888
  0
POINT
  5
20174
100
AcDbEntity
  8
0
100
AcDbPoint
 10
-73.965099
 20
40.715908
  0
POINT
  5
20175
100
AcDbEntity
  8
0
100
AcDbPoint
 10
-73.969254
 20
40.75791
  0
POINT
  5
20176
100
AcDbEntity
  8
0
100
AcDbPoint
 10
-73.97645
 20
40.751601
  0
POINT
  5
20177
100
AcDbEntity
  8
0
100
AcDbPoint
 10
-73.988302
 20
40.714211
  0
POINT
  5
20178
100
AcDbEntity
  8
0
100
AcDbPoint
 10
-73.998838
 20
40.753574
  0
POINT
  5
20179
100
AcDbEntity
  8
0
100
AcDbPoint
 10
-73.972266
 20
40.752355
  0
POINT
  5
2017A
100
AcDbEntity
  8
0
100
AcDbPoint
 10
-74.006148
 20
40.729412
  0
POINT
  5
2017B
100
AcDbEntity
  8
0
100
AcDbPoint
 10
-73.978787
 20
40.74432
  0
POINT
  5
2017C
100
AcDbEntity
  8
0
100
AcDbPoint
 10
-73.959655
 20
40.710686
  0
POINT
  5
2017D
100
AcDbEntity
  8
0
100
AcDbPoint
 10
-73.982745
 20
40.774919
  0
POINT
  5
2017E
100
AcDbEntity
  8
0
100
AcDbPoint
 10
-73.993616
 20
40.746869
  0
POINT
  5
2017F
100
AcDbEntity
  8
0
100
AcDbPoint
 10
-74.005756
 20
40.747495
  0
POINT
  5
20180
100
AcDbEntity
  8
0
100
AcDbPoint
 10
-73.993616
 20
40.746869
  0
POINT
  5
20181
100
AcDbEntity
  8
0
100
AcDbPoint
 10
-73.992045
 20
40.755707
  0
POINT
  5
20182
100
AcDbEntity
  8
0
100
AcDbPoint
 10
-74.005136
 20
40.708769
  0
POINT
  5
20183
100
AcDbEntity
  8
0
100
AcDbPoint
 10
-73.988383
 20
40.74515
  0
POINT
  5
20184
100
AcDbEntity
  8
0
100
AcDbPoint
 10
-73.991449
 20
40.760038
  0
POINT
  5
20185
100
AcDbEntity
  8
0
100
AcDbPoint
 10
-73.992321
 20
40.738736
  0
POINT
  5
20186
100
AcDbEntity
  8
0
100
AcDbPoint
 10
-73.976999
 20
40.749351
  0
POINT
  5
20187
100
AcDbEntity
  8
0
100
AcDbPoint
 10
-73.988814
 20
40.759351
  0
POINT
  5
20188
100
AcDbEntity
  8
0
100
AcDbPoint
 10
-73.992538
 20
40.766642
  0
POINT
  5
20189
100
AcDbEntity
  8
0
100
AcDbPoint
 10
-73.984456
 20
40.761585
  0
POINT
  5
2018A
100
AcDbEntity
  8
0
100
AcDbPoint
 10
-73.993185
 20
40.758652
  0
POINT
  5
2018B
100
AcDbEntity
  8
0
100
AcDbPoint
 10
-74.00481
 20
40.731298
  0
POINT
  5
2018C
100
AcDbEntity
  8
0
100
AcDbPoint
 10
-74.008129
 20
40.73273
  0
POINT
  5
2018D
100
AcDbEntity
  8
0
100
AcDbPoint
 10
-73.9866
 20
40.745208
  0
POINT
  5
2018E
100
AcDbEntity
  8
0
100
AcDbPoint
 10
-73.996384
 20
40.739675
  0
POINT
  5
2018F
100
AcDbEntity
  8
0
100
AcDbPoint
 10
-73.960854
 20
40.697358
  0
POINT
  5
20190
100
AcDbEntity
  8
0
100
AcDbPoint
 10
-73.937025
 20
40.798014
  0
POINT
  5
20191
100
AcDbEntity
  8
0
100
AcDbPoint
 10
-73.97523
 20
40.751969
  0
POINT
  5
20192
100
AcDbEntity
  8
0
100
AcDbPoint
 10
-73.927859
 20
40.817315
  0
POINT
  5
20193
100
AcDbEntity
  8
0
100
AcDbPoint
 10
-73.973084
 20
40.792848
  0
POINT
  5
20194
100
AcDbEntity
  8
0
100
AcDbPoint
 10
-73.998018
 20
40.756154
  0
POINT
  5
20195
100
AcDbEntity
  8
0
100
AcDbPoint
 10
-73.935312
 20
40.703108
  0
POINT
  5
20196
100
AcDbEntity
  8
0
100
AcDbPoint
 10
-73.952813
 20
40.802841
  0
POINT
  5
20197
100
AcDbEntity
  8
0
100
AcDbPoint
 10
-73.989887
 20
40.726393
  0
POINT
  5
20198
100
AcDbEntity
  8
0
100
AcDbPoint
 10
-73.953274
 20
40.742199
  0
POINT
  5
20199
100
AcDbEntity
  8
0
100
AcDbPoint
 10
-73.986122
 20
40.718943
  0
POINT
  5
2019A
100
AcDbEntity
  8
0
100
AcDbPoint
 10
-73.98937
 20
40.753769
  0
POINT
  5
2019B
100
AcDbEntity
  8
0
100
AcDbPoint
 10
-73.992417
 20
40.753612
  0
POINT
  5
2019C
100
AcDbEntity
  8
0
100
AcDbPoint
 10
-74.00749
 20
40.72631
  0
POINT
  5
2019D
100
AcDbEntity
  8
0
100
AcDbPoint
 10
-73.984268
 20
40.748822
  0
POINT
  5
2019E
100
AcDbEntity
  8
0
100
AcDbPoint
 10
-73.982515
 20
40.745492
  0
POINT
  5
2019F
100
AcDbEntity
  8
0
100
AcDbPoint
 10
-73.985637
 20
40.744104
  0
POINT
  5
201A0
100
AcDbEntity
  8
0
100
AcDbPoint
 10
-73.989294
 20
40.73419
  0
POINT
  5
201A1
100
AcDbEntity
  8
0
100
AcDbPoint
 10
-73.953005
 20
40.810952
  0
POINT
  5
201A2
100
AcDbEntity
  8
0
100
AcDbPoint
 10
-73.992528
 20
40.726739
  0
POINT
  5
201A3
100
AcDbEntity
  8
0
100
AcDbPoint
 10
-74.00425
 20
40.728493
  0
POINT
  5
201A4
100
AcDbEntity
  8
0
100
AcDbPoint
 10
-73.983865
 20
40.773742
  0
POINT
  5
201A5
100
AcDbEntity
  8
0
100
AcDbPoint
 10
-73.994808
 20
40.73435
  0
POINT
  5
201A6
100
AcDbEntity
  8
0
100
AcDbPoint
 10
-73.935022
 20
40.744902
  0
POINT
  5
201A7
100
AcDbEntity
  8
0
100
AcDbPoint
 10
-73.946991
 20
40.823616
  0
POINT
  5
201A8
100
AcDbEntity
  8
0
100
AcDbPoint
 10
-74.004452
 20
40.718664
  0
POINT
  5
201A9
100
AcDbEntity
  8
0
100
AcDbPoint
 10
-73.991689
 20
40.745735
  0
POINT
  5
201AA
100
AcDbEntity
  8
0
100
AcDbPoint
 10
-74.003976
 20
40.725677
  0
POINT
  5
201AB
100
AcDbEntity
  8
0
100
AcDbPoint
 10
-74.018001
 20
40.705806
  0
POINT
  5
201AC
100
AcDbEntity
  8
0
100
AcDbPoint
 10
-73.935323
 20
40.750433
  0
POINT
  5
201AD
100
AcDbEntity
  8
0
100
AcDbPoint
 10
-73.937602
 20
40.745216
  0
POINT
  5
201AE
100
AcDbEntity
  8
0
100
AcDbPoint
 10
-73.984652
 20
40.771609
  0
POINT
  5
201AF
100
AcDbEntity
  8
0
100
AcDbPoint
 10
-73.945718
 20
40.750564
  0
POINT
  5
201B0
100
AcDbEntity
  8
0
100
AcDbPoint
 10
-73.932987
 20
40.798371
  0
POINT
  5
201B1
100
AcDbEntity
  8
0
100
AcDbPoint
 10
-74.006477
 20
40.738354
  0
POINT
  5
201B2
100
AcDbEntity
  8
0
100
AcDbPoint
 10
-73.946664
 20
40.804112
  0
POINT
  5
201B3
100
AcDbEntity
  8
0
100
AcDbPoint
 10
-73.990154
 20
40.754079
  0
POINT
  5
201B4
100
AcDbEntity
  8
0
100
AcDbPoint
 10
-74.008494
 20
40.736955
  0
POINT
  5
201B5
100
AcDbEntity
  8
0
100
AcDbPoint
 10
-73.987401
 20
40.728956
  0
POINT
  5
201B6
100
AcDbEntity
  8
0
100
AcDbPoint
 10
-73.991225
 20
40.762
  0
POINT
  5
201B7
100
AcDbEntity
  8
0
100
AcDbPoint
 10
-73.988673
 20
40.697545
  0
POINT
  5
201B8
100
AcDbEntity
  8
0
100
AcDbPoint
 10
-73.990735
 20
40.726755
  0
POINT
  5
201B9
100
AcDbEntity
  8
0
100
AcDbPoint
 10
-73.972584
 20
40.794981
  0
POINT
  5
201BA
100
AcDbEntity
  8
0
100
AcDbPoint
 10
-73.987086
 20
40.754531
  0
POINT
  5
201BB
100
AcDbEntity
  8
0
100
AcDbPoint
 10
-73.972866
 20
40.786769
  0
POINT
  5
201BC
100
AcDbEntity
  8
0
100
AcDbPoint
 10
-73.970684
 20
40.764091
  0
POINT
  5
201BD
100
AcDbEntity
  8
0
100
AcDbPoint
 10
-73.99371
 20
40.744165
  0
POINT
  5
201BE
100
AcDbEntity
  8
0
100
AcDbPoint
 10
-73.967749
 20
40.771054
  0
POINT
  5
201BF
100
AcDbEntity
  8
0
100
AcDbPoint
 10
-73.955711
 20
40.714077
  0
POINT
  5
201C0
100
AcDbEntity
  8
0
100
AcDbPoint
 10
-73.993655
 20
40.746817
  0
POINT
  5
201C1
100
AcDbEntity
  8
0
100
AcDbPoint
 10
-74.008036
 20
40.739587
  0
POINT
  5
201C2
100
AcDbEntity
  8
0
100
AcDbPoint
 10
-74.006851
 20
40.725767
  0
POINT
  5
201C3
100
AcDbEntity
  8
0
100
AcDbPoint
 10
-73.962995
 20
40.769356
  0
POINT
  5
201C4
100
AcDbEntity
  8
0
100
AcDbPoint
 10
-73.970856
 20
40.798464
  0
POINT
  5
201C5
100
AcDbEntity
  8
0
100
AcDbPoint
 10
-73.953005
 20
40.810952
  0
POINT
  5
201C6
100
AcDbEntity
  8
0
100
AcDbPoint
 10
-73.983889
 20
40.748147
  0
POINT
  5
201C7
100
AcDbEntity
  8
0
100
AcDbPoint
 10
-73.980848
 20
40.755156
  0
POINT
  5
201C8
100
AcDbEntity
  8
0
100
AcDbPoint
 10
-74.005955
 20
40.750934
  0
POINT
  5
201C9
100
AcDbEntity
  8
0
100
AcDbPoint
 10
-73.981038
 20
40.774318
  0
POINT
  5
201CA
100
AcDbEntity
  8
0
100
AcDbPoint
 10
-73.969734
 20
40.797478
  0
POINT
  5
201CB
100
AcDbEntity
  8
0
100
AcDbPoint
 10
-73.927915
 20
40.806267
  0
POINT
  5
201CC
100
AcDbEntity
  8
0
100
AcDbPoint
 10
-73.991661
 20
40.76138
  0
POINT
  5
201CD
100
AcDbEntity
  8
0
100
AcDbPoint
 10
-73.989911
 20
40.738604
  0
POINT
  5
201CE
100
AcDbEntity
  8
0
100
AcDbPoint
 10
-73.992417
 20
40.753612
  0
POINT
  5
201CF
100
AcDbEntity
  8
0
100
AcDbPoint
 10
-73.990594
 20
40.753475
  0
POINT
  5
201D0
100
AcDbEntity
  8
0
100
AcDbPoint
 10
-73.980889
 20
40.778306
  0
POINT
  5
201D1
100
AcDbEntity
  8
0
100
AcDbPoint
 10
-73.991689
 20
40.745735
  0
POINT
  5
201D2
100
AcDbEntity
  8
0
100
AcDbPoint
 10
-73.985411
 20
40.735052
  0
POINT
  5
201D3
100
AcDbEntity
  8
0
100
AcDbPoint
 10
-73.992909
 20
40.744615
  0
POINT
  5
201D4
100
AcDbEntity
  8
0
100
AcDbPoint
 10
-73.946103
 20
40.81884
  0
POINT
  5
201D5
100
AcDbEntity
  8
0
100
AcDbPoint
 10
-73.949101
 20
40.78148
  0
POINT
  5
201D6
100
AcDbEntity
  8
0
100
AcDbPoint
 10
-73.970904
 20
40.788212
  0
POINT
  5
201D7
100
AcDbEntity
  8
0
100
AcDbPoint
 10
-74.000985
 20
40.736395
  0
POINT
  5
201D8
100
AcDbEntity
  8
0
100
AcDbPoint
 10
-73.948215
 20
40.807214
  0
POINT
  5
201D9
100
AcDbEntity
  8
0
100
AcDbPoint
 10
-73.993185
 20
40.758652
  0
POINT
  5
201DA
100
AcDbEntity
  8
0
100
AcDbPoint
 10
-73.987401
 20
40.728956
  0
POINT
  5
201DB
100
AcDbEntity
  8
0
100
AcDbPoint
 10
-73.969728
 20
40.8023
  0
POINT
  5
201DC
100
AcDbEntity
  8
0
100
AcDbPoint
 10
-73.974738
 20
40.792544
  0
POINT
  5
201DD
100
AcDbEntity
  8
0
100
AcDbPoint
 10
-73.98719
 20
40.737333
  0
POINT
  5
201DE
100
AcDbEntity
  8
0
100
AcDbPoint
 10
-73.978498
 20
40.789163
  0
POINT
  5
201DF
100
AcDbEntity
  8
0
100
AcDbPoint
 10
-73.999347
 20
40.714459
  0
POINT
  5
201E0
100
AcDbEntity
  8
0
100
AcDbPoint
 10
-73.980516
 20
40.755854
  0
POINT
  5
201E1
100
AcDbEntity
  8
0
100
AcDbPoint
 10
-73.993377
 20
40.748848
  0
POINT
  5
201E2
100
AcDbEntity
  8
0
100
AcDbPoint
 10
-73.987433
 20
40.730817
  0
POINT
  5
201E3
100
AcDbEntity
  8
0
100
AcDbPoint
 10
-73.983031
 20
40.732447
  0
POINT
  5
201E4
100
AcDbEntity
  8
0
100
AcDbPoint
 10
-73.937256
 20
40.802592
  0
POINT
  5
201E5
100
AcDbEntity
  8
0
100
AcDbPoint
 10
-74.005975
 20
40.731619
  0
POINT
  5
201E6
100
AcDbEntity
  8
0
100
AcDbPoint
 10
-73.999203
 20
40.716092
  0
POINT
  5
201E7
100
AcDbEntity
  8
0
100
AcDbPoint
 10
-73.943706
 20
40.816176
  0
POINT
  5
201E8
100
AcDbEntity
  8
0
100
AcDbPoint
 10
-74.007556
 20
40.73629
  0
POINT
  5
201E9
100
AcDbEntity
  8
0
100
AcDbPoint
 10
-74.00676
 20
40.745559
  0
POINT
  5
201EA
100
AcDbEntity
  8
0
100
AcDbPoint
 10
-73.945094
 20
40.815902
  0
POINT
  5
201EB
100
AcDbEntity
  8
0
100
AcDbPoint
 10
-73.943407
 20
40.815723
  0
POINT
  5
201EC
100
AcDbEntity
  8
0
100
AcDbPoint
 10
-73.941342
 20
40.810159
  0
POINT
  5
201ED
100
AcDbEntity
  8
0
100
AcDbPoint
 10
-73.960159
 20
40.814937
  0
POINT
  5
201EE
100
AcDbEntity
  8
0
100
AcDbPoint
 10
-73.941096
 20
40.805934
  0
POINT
  5
201EF
100
AcDbEntity
  8
0
100
AcDbPoint
 10
-73.948582
 20
40.808639
  0
POINT
  5
201F0
100
AcDbEntity
  8
0
100
AcDbPoint
 10
-73.936058
 20
40.812376
  0
POINT
  5
201F1
100
AcDbEntity
  8
0
100
AcDbPoint
 10
-73.94633
 20
40.823821
  0
POINT
  5
201F2
100
AcDbEntity
  8
0
100
AcDbPoint
 10
-73.945652
 20
40.82218
  0
POINT
  5
201F3
100
AcDbEntity
  8
0
100
AcDbPoint
 10
-73.982076
 20
40.780408
  0
POINT
  5
201F4
100
AcDbEntity
  8
0
100
AcDbPoint
 10
-73.971438
 20
40.797662
  0
POINT
  5
201F5
100
AcDbEntity
  8
0
100
AcDbPoint
 10
-73.948986
 20
40.771681
  0
POINT
  5
201F6
100
AcDbEntity
  8
0
100
AcDbPoint
 10
-73.970146
 20
40.79568
  0
POINT
  5
201F7
100
AcDbEntity
  8
0
100
AcDbPoint
 10
-73.997121
 20
40.725004
  0
POINT
  5
201F8
100
AcDbEntity
  8
0
100
AcDbPoint
 10
-73.926842
 20
40.80656
  0
POINT
  5
201F9
100
AcDbEntity
  8
0
100
AcDbPoint
 10
-73.984532
 20
40.713857
  0
POINT
  5
201FA
100
AcDbEntity
  8
0
100
AcDbPoint
 10
-74.007495
 20
40.736299
  0
POINT
  5
201FB
100
AcDbEntity
  8
0
100
AcDbPoint
 10
-73.933796
 20
40.707133
  0
POINT
  5
201FC
100
AcDbEntity
  8
0
100
AcDbPoint
 10
-73.993153
 20
40.716589
  0
POINT
  5
201FD
100
AcDbEntity
  8
0
100
AcDbPoint
 10
-73.992632
 20
40.730038
  0
POINT
  5
201FE
100
AcDbEntity
  8
0
100
AcDbPoint
 10
-73.975584
 20
40.760324
  0
POINT
  5
201FF
100
AcDbEntity
  8
0
100
AcDbPoint
 10
-73.960772
 20
40.817051
  0
POINT
  5
20200
100
AcDbEntity
  8
0
100
AcDbPoint
 10
-74.008051
 20
40.710385
  0
POINT
  5
20201
100
AcDbEntity
  8
0
100
AcDbPoint
 10
-73.947314
 20
40.799512
  0
POINT
  5
20202
100
AcDbEntity
  8
0
100
AcDbPoint
 10
-73.948708
 20
40.710105
  0
POINT
  5
20203
100
AcDbEntity
  8
0
100
AcDbPoint
 10
-73.991944
 20
40.754296
  0
POINT
  5
20204
100
AcDbEntity
  8
0
100
AcDbPoint
 10
-73.986122
 20
40.718943
  0
POINT
  5
20205
100
AcDbEntity
  8
0
100
AcDbPoint
 10
-73.987433
 20
40.730817
  0
POINT
  5
20206
100
AcDbEntity
  8
0
100
AcDbPoint
 10
-73.970516
 20
40.767711
  0
POINT
  5
20207
100
AcDbEntity
  8
0
100
AcDbPoint
 10
-74.004477
 20
40.724971
  0
POINT
  5
20208
100
AcDbEntity
  8
0
100
AcDbPoint
 10
-73.975464
 20
40.752262
  0
POINT
  5
20209
100
AcDbEntity
  8
0
100
AcDbPoint
 10
-73.979053
 20
40.748615
  0
POINT
  5
2020A
100
AcDbEntity
  8
0
100
AcDbPoint
 10
-73.988237
 20
40.752465
  0
POINT
  5
2020B
100
AcDbEntity
  8
0
100
AcDbPoint
 10
-73.931112
 20
40.746728
  0
POINT
  5
2020C
100
AcDbEntity
  8
0
100
AcDbPoint
 10
-73.976747
 20
40.788007
  0
POINT
  5
2020D
100
AcDbEntity
  8
0
100
AcDbPoint
 10
-73.992417
 20
40.753612
  0
POINT
  5
2020E
100
AcDbEntity
  8
0
100
AcDbPoint
 10
-74.00544
 20
40.720404
  0
POINT
  5
2020F
100
AcDbEntity
  8
0
100
AcDbPoint
 10
-73.986937
 20
40.737229
  0
POINT
  5
20210
100
AcDbEntity
  8
0
100
AcDbPoint
 10
-73.996454
 20
40.724496
  0
POINT
  5
20211
100
AcDbEntity
  8
0
100
AcDbPoint
 10
-73.985922
 20
40.72785
  0
POINT
  5
20212
100
AcDbEntity
  8
0
100
AcDbPoint
 10
-74.001815
 20
40.749196
  0
POINT
  5
20213
100
AcDbEntity
  8
0
100
AcDbPoint
 10
-73.96549
 20
40.768835
  0
POINT
  5
20214
100
AcDbEntity
  8
0
100
AcDbPoint
 10
-73.964396
 20
40.709568
  0
POINT
  5
20215
100
AcDbEntity
  8
0
100
AcDbPoint
 10
-73.964554
 20
40.804953
  0
POINT
  5
20216
100
AcDbEntity
  8
0
100
AcDbPoint
 10
-74.008129
 20
40.73273
  0
POINT
  5
20217
100
AcDbEntity
  8
0
100
AcDbPoint
 10
-74.008496
 20
40.747999
  0
POINT
  5
20218
100
AcDbEntity
  8
0
100
AcDbPoint
 10
-73.939759
 20
40.821938
  0
POINT
  5
20219
100
AcDbEntity
  8
0
100
AcDbPoint
 10
-73.990827
 20
40.71333
  0
POINT
  5
2021A
100
AcDbEntity
  8
0
100
AcDbPoint
 10
-73.968755
 20
40.797538
  0
POINT
  5
2021B
100
AcDbEntity
  8
0
100
AcDbPoint
 10
-73.93663
 20
40.749915
  0
POINT
  5
2021C
100
AcDbEntity
  8
0
100
AcDbPoint
 10
-73.951759
 20
40.801185
  0
POINT
  5
2021D
100
AcDbEntity
  8
0
100
AcDbPoint
 10
-74.002482
 20
40.71871
  0
POINT
  5
2021E
100
AcDbEntity
  8
0
100
AcDbPoint
 10
-73.986681
 20
40.702763
  0
POINT
  5
2021F
100
AcDbEntity
  8
0
100
AcDbPoint
 10
-73.985835
 20
40.746679
  0
POINT
  5
20220
100
AcDbEntity
  8
0
100
AcDbPoint
 10
-73.991385
 20
40.721238
  0
POINT
  5
20221
100
AcDbEntity
  8
0
100
AcDbPoint
 10
-73.972622
 20
40.792475
  0
POINT
  5
20222
100
AcDbEntity
  8
0
100
AcDbPoint
 10
-73.95564
 20
40.814216
  0
POINT
  5
20223
100
AcDbEntity
  8
0
100
AcDbPoint
 10
-73.965686
 20
40.808999
  0
POINT
  5
20224
100
AcDbEntity
  8
0
100
AcDbPoint
 10
-73.980932
 20
40.754371
  0
POINT
  5
20225
100
AcDbEntity
  8
0
100
AcDbPoint
 10
-73.977188
 20
40.776727
  0
POINT
  5
20226
100
AcDbEntity
  8
0
100
AcDbPoint
 10
-73.991916
 20
40.745831
  0
POINT
  5
20227
100
AcDbEntity
  8
0
100
AcDbPoint
 10
-73.983732
 20
40.755352
  0
POINT
  5
20228
100
AcDbEntity
  8
0
100
AcDbPoint
 10
-74.003999
 20
40.750094
  0
POINT
  5
20229
100
AcDbEntity
  8
0
100
AcDbPoint
 10
-73.991449
 20
40.760038
  0
POINT
  5
2022A
100
AcDbEntity
  8
0
100
AcDbPoint
 10
-73.934803
 20
40.714429
  0
POINT
  5
2022B
100
AcDbEntity
  8
0
100
AcDbPoint
 10
-73.945496
 20
40.809488
  0
POINT
  5
2022C
100
AcDbEntity
  8
0
100
AcDbPoint
 10
-73.99437
 20
40.74268
  0
POINT
  5
2022D
100
AcDbEntity
  8
0
100
AcDbPoint
 10
-73.992674
 20
40.745343
  0
POINT
  5
2022E
100
AcDbEntity
  8
0
100
AcDbPoint
 10
-73.937405
 20
40.767243
  0
POINT
  5
2022F
100
AcDbEntity
  8
0
100
AcDbPoint
 10
-73.987401
 20
40.728956
  0
POINT
  5
20230
100
AcDbEntity
  8
0
100
AcDbPoint
 10
-73.997395
 20
40.71915
  0
POINT
  5
20231
100
AcDbEntity
  8
0
100
AcDbPoint
 10
-73.981717
 20
40.785881
  0
POINT
  5
20232
100
AcDbEntity
  8
0
100
AcDbPoint
 10
-73.985666
 20
40.760476
  0
POINT
  5
20233
100
AcDbEntity
  8
0
100
AcDbPoint
 10
-73.968404
 20
40.75236
  0
POINT
  5
20234
100
AcDbEntity
  8
0
100
AcDbPoint
 10
-73.979161
 20
40.713732
  0
POINT
  5
20235
100
AcDbEntity
  8
0
100
AcDbPoint
 10
-73.942029
 20
40.746196
  0
POINT
  5
20236
100
AcDbEntity
  8
0
100
AcDbPoint
 10
-74.006456
 20
40.746215
  0
POINT
  5
20237
100
AcDbEntity
  8
0
100
AcDbPoint
 10
-73.979891
 20
40.781014
  0
POINT
  5
20238
100
AcDbEntity
  8
0
100
AcDbPoint
 10
-73.957263
 20
40.785298
  0
POINT
  5
20239
100
AcDbEntity
  8
0
100
AcDbPoint
 10
-73.971196
 20
40.798027
  0
POINT
  5
2023A
100
AcDbEntity
  8
0
100
AcDbPoint
 10
-73.987693
 20
40.770328
  0
POINT
  5
2023B
100
AcDbEntity
  8
0
100
AcDbPoint
 10
-73.93542
 20
40.70675
  0
POINT
  5
2023C
100
AcDbEntity
  8
0
100
AcDbPoint
 10
-73.992175
 20
40.754946
  0
POINT
  5
2023D
100
AcDbEntity
  8
0
100
AcDbPoint
 10
-74.005136
 20
40.708769
  0
POINT
  5
2023E
100
AcDbEntity
  8
0
100
AcDbPoint
 10
-74.000346
 20
40.742757
  0
POINT
  5
2023F
100
AcDbEntity
  8
0
100
AcDbPoint
 10
-73.999405
 20
40.72333
  0
POINT
  5
20240
100
AcDbEntity
  8
0
100
AcDbPoint
 10
-73.998409
 20
40.729923
  0
POINT
  5
20241
100
AcDbEntity
  8
0
100
AcDbPoint
 10
-73.98445
 20
40.711249
  0
POINT
  5
20242
100
AcDbEntity
  8
0
100
AcDbPoint
 10
-73.982659
 20
40.775704
  0
POINT
  5
20243
100
AcDbEntity
  8
0
100
AcDbPoint
 10
-73.967454
 20
40.711191
  0
POINT
  5
20244
100
AcDbEntity
  8
0
100
AcDbPoint
 10
-73.97523
 20
40.751969
  0
POINT
  5
20245
100
AcDbEntity
  8
0
100
AcDbPoint
 10
-73.993226
 20
40.743097
  0
POINT
  5
20246
100
AcDbEntity
  8
0
100
AcDbPoint
 10
-73.985063
 20
40.729812
  0
POINT
  5
20247
100
AcDbEntity
  8
0
100
AcDbPoint
 10
-73.985602
 20
40.723793
  0
POINT
  5
20248
100
AcDbEntity
  8
0
100
AcDbPoint
 10
-73.993762
 20
40.726472
  0
POINT
  5
20249
100
AcDbEntity
  8
0
100
AcDbPoint
 10
-73.992417
 20
40.753612
  0
POINT
  5
2024A
100
AcDbEntity
  8
0
100
AcDbPoint
 10
-73.948885
 20
40.790008
  0
POINT
  5
2024B
100
AcDbEntity
  8
0
100
AcDbPoint
 10
-73.991328
 20
40.718466
  0
POINT
  5
2024C
100
AcDbEntity
  8
0
100
AcDbPoint
 10
-73.990154
 20
40.754079
  0
POINT
  5
2024D
100
AcDbEntity
  8
0
100
AcDbPoint
 10
-73.982889
 20
40.721794
  0
POINT
  5
2024E
100
AcDbEntity
  8
0
100
AcDbPoint
 10
-73.989872
 20
40.733916
  0
POINT
  5
2024F
100
AcDbEntity
  8
0
100
AcDbPoint
 10
-73.997196
 20
40.742299
  0
POINT
  5
20250
100
AcDbEntity
  8
0
100
AcDbPoint
 10
-73.94245
 20
40.806177
  0
POINT
  5
20251
100
AcDbEntity
  8
0
100
AcDbPoint
 10
-74.005764
 20
40.707671
  0
POINT
  5
20252
100
AcDbEntity
  8
0
100
AcDbPoint
 10
-73.978145
 20
40.754374
  0
POINT
  5
20253
100
AcDbEntity
  8
0
100
AcDbPoint
 10
-73.982172
 20
40.759798
  0
POINT
  5
20254
100
AcDbEntity
  8
0
100
AcDbPoint
 10
-73.984974
 20
40.770141
  0
POINT
  5
20255
100
AcDbEntity
  8
0
100
AcDbPoint
 10
-74.009205
 20
40.736095
  0
POINT
  5
20256
100
AcDbEntity
  8
0
100
AcDbPoint
 10
-73.951992
 20
40.793072
  0
POINT
  5
20257
100
AcDbEntity
  8
0
100
AcDbPoint
 10
-73.987401
 20
40.728956
  0
POINT
  5
20258
100
AcDbEntity
  8
0
100
AcDbPoint
 10
-73.990169
 20
40.726494
  0
POINT
  5
20259
100
AcDbEntity
  8
0
100
AcDbPoint
 10
-73.935022
 20
40.744902
  0
POINT
  5
2025A
100
AcDbEntity
  8
0
100
AcDbPoint
 10
-73.935022
 20
40.744902
  0
POINT
  5
2025B
100
AcDbEntity
  8
0
100
AcDbPoint
 10
-73.979594
 20
40.773595
  0
POINT
  5
2025C
100
AcDbEntity
  8
0
100
AcDbPoint
 10
-73.989922
 20
40.75818
  0
POINT
  5
2025D
100
AcDbEntity
  8
0
100
AcDbPoint
 10
-73.987632
 20
40.76374
  0
POINT
  5
2025E
100
AcDbEntity
  8
0
100
AcDbPoint
 10
-73.982458
 20
40.741825
  0
POINT
  5
2025F
100
AcDbEntity
  8
0
100
AcDbPoint
 10
-73.992636
 20
40.759302
  0
POINT
  5
20260
100
AcDbEntity
  8
0
100
AcDbPoint
 10
-74.004345
 20
40.750259
  0
POINT
  5
20261
100
AcDbEntity
  8
0
100
AcDbPoint
 10
-73.985854
 20
40.759713
  0
POINT
  5
20262
100
AcDbEntity
  8
0
100
AcDbPoint
 10
-73.992417
 20
40.753612
  0
POINT
  5
20263
100
AcDbEntity
  8
0
100
AcDbPoint
 10
-74.007329
 20
40.707116
  0
POINT
  5
20264
100
AcDbEntity
  8
0
100
AcDbPoint
 10
-73.992193
 20
40.75395
  0
POINT
  5
20265
100
AcDbEntity
  8
0
100
AcDbPoint
 10
-74.004352
 20
40.733529
  0
POINT
  5
20266
100
AcDbEntity
  8
0
100
AcDbPoint
 10
-74.000603
 20
40.738034
  0
POINT
  5
20267
100
AcDbEntity
  8
0
100
AcDbPoint
 10
-74.003204
 20
40.721705
  0
POINT
  5
20268
100
AcDbEntity
  8
0
100
AcDbPoint
 10
-74.004735
 20
40.743962
  0
POINT
  5
20269
100
AcDbEntity
  8
0
100
AcDbPoint
 10
-73.997842
 20
40.754022
  0
POINT
  5
2026A
100
AcDbEntity
  8
0
100
AcDbPoint
 10
-73.994946
 20
40.718175
  0
POINT
  5
2026B
100
AcDbEntity
  8
0
100
AcDbPoint
 10
-74.005131
 20
40.738146
  0
POINT
  5
2026C
100
AcDbEntity
  8
0
100
AcDbPoint
 10
-73.969464
 20
40.802794
  0
POINT
  5
2026D
100
AcDbEntity
  8
0
100
AcDbPoint
 10
-73.955816
 20
40.734377
  0
POINT
  5
2026E
100
AcDbEntity
  8
0
100
AcDbPoint
 10
-73.987266
 20
40.774338
  0
POINT
  5
2026F
100
AcDbEntity
  8
0
100
AcDbPoint
 10
-73.983865
 20
40.773742
  0
POINT
  5
20270
100
AcDbEntity
  8
0
100
AcDbPoint
 10
-73.982429
 20
40.769158
  0
POINT
  5
20271
100
AcDbEntity
  8
0
100
AcDbPoint
 10
-74.003976
 20
40.725677
  0
POINT
  5
20272
100
AcDbEntity
  8
0
100
AcDbPoint
 10
-73.955687
 20
40.820348
  0
POINT
  5
20273
100
AcDbEntity
  8
0
100
AcDbPoint
 10
-73.927092
 20
40.819057
  0
POINT
  5
20274
100
AcDbEntity
  8
0
100
AcDbPoint
 10
-73.991449
 20
40.760038
  0
POINT
  5
20275
100
AcDbEntity
  8
0
100
AcDbPoint
 10
-73.953851
 20
40.727372
  0
POINT
  5
20276
100
AcDbEntity
  8
0
100
AcDbPoint
 10
-73.984253
 20
40.720683
  0
POINT
  5
20277
100
AcDbEntity
  8
0
100
AcDbPoint
 10
-73.995254
 20
40.745623
  0
POINT
  5
20278
100
AcDbEntity
  8
0
100
AcDbPoint
 10
-73.987896
 20
40.761399
  0
POINT
  5
20279
100
AcDbEntity
  8
0
100
AcDbPoint
 10
-73.949061
 20
40.749237
  0
POINT
  5
2027A
100
AcDbEntity
  8
0
100
AcDbPoint
 10
-74.002576
 20
40.721172
  0
POINT
  5
2027B
100
AcDbEntity
  8
0
100
AcDbPoint
 10
-73.984655
 20
40.727317
  0
POINT
  5
2027C
100
AcDbEntity
  8
0
100
AcDbPoint
 10
-73.99045
 20
40.726634
  0
POINT
  5
2027D
100
AcDbEntity
  8
0
100
AcDbPoint
 10
-73.987591
 20
40.714285
  0
POINT
  5
2027E
100
AcDbEntity
  8
0
100
AcDbPoint
 10
-73.949087
 20
40.80431
  0
POINT
  5
2027F
100
AcDbEntity
  8
0
100
AcDbPoint
 10
-73.991203
 20
40.732741
  0
POINT
  5
20280
100
AcDbEntity
  8
0
100
AcDbPoint
 10
-73.986592
 20
40.768277
  0
POINT
  5
20281
100
AcDbEntity
  8
0
100
AcDbPoint
 10
-73.946558
 20
40.791881
  0
POINT
  5
20282
100
AcDbEntity
  8
0
100
AcDbPoint
 10
-73.953966
 20
40.722722
  0
POINT
  5
20283
100
AcDbEntity
  8
0
100
AcDbPoint
 10
-73.971383
 20
40.800423
  0
POINT
  5
20284
100
AcDbEntity
  8
0
100
AcDbPoint
 10
-73.981525
 20
40.724627
  0
POINT
  5
20285
100
AcDbEntity
  8
0
100
AcDbPoint
 10
-73.986509
 20
40.714359
  0
POINT
  5
20286
100
AcDbEntity
  8
0
100
AcDbPoint
 10
-73.99096
 20
40.716679
  0
POINT
  5
20287
100
AcDbEntity
  8
0
100
AcDbPoint
 10
-73.976323
 20
40.723308
  0
POINT
  5
20288
100
AcDbEntity
  8
0
100
AcDbPoint
 10
-73.984979
 20
40.714499
  0
POINT
  5
20289
100
AcDbEntity
  8
0
100
AcDbPoint
 10
-73.99263
 20
40.754318
  0
POINT
  5
2028A
100
AcDbEntity
  8
0
100
AcDbPoint
 10
-73.990007
 20
40.718592
  0
POINT
  5
2028B
100
AcDbEntity
  8
0
100
AcDbPoint
 10
-74.006341
 20
40.706397
  0
POINT
  5
2028C
100
AcDbEntity
  8
0
100
AcDbPoint
 10
-73.98819
 20
40.756571
  0
POINT
  5
2028D
100
AcDbEntity
  8
0
100
AcDbPoint
 10
-73.997023
 20
40.747294
  0
POINT
  5
2028E
100
AcDbEntity
  8
0
100
AcDbPoint
 10
-73.980335
 20
40.77143
  0
POINT
  5
2028F
100
AcDbEntity
  8
0
100
AcDbPoint
 10
-73.992417
 20
40.753612
  0
POINT
  5
20290
100
AcDbEntity
  8
0
100
AcDbPoint
 10
-73.987401
 20
40.728956
  0
POINT
  5
20291
100
AcDbEntity
  8
0
100
AcDbPoint
 10
-73.975584
 20
40.760324
  0
POINT
  5
20292
100
AcDbEntity
  8
0
100
AcDbPoint
 10
-73.987449
 20
40.741617
  0
POINT
  5
20293
100
AcDbEntity
  8
0
100
AcDbPoint
 10
-73.966632
 20
40.789015
  0
POINT
  5
20294
100
AcDbEntity
  8
0
100
AcDbPoint
 10
-73.990807
 20
40.726785
  0
POINT
  5
20295
100
AcDbEntity
  8
0
100
AcDbPoint
 10
-73.949734
 20
40.761839
  0
POINT
  5
20296
100
AcDbEntity
  8
0
100
AcDbPoint
 10
-73.955246
 20
40.799534
  0
POINT
  5
20297
100
AcDbEntity
  8
0
100
AcDbPoint
 10
-73.969339
 20
40.751943
  0
POINT
  5
20298
100
AcDbEntity
  8
0
100
AcDbPoint
 10
-73.946375
 20
40.809036
  0
POINT
  5
20299
100
AcDbEntity
  8
0
100
AcDbPoint
 10
-73.990487
 20
40.745342
  0
POINT
  5
2029A
100
AcDbEntity
  8
0
100
AcDbPoint
 10
-73.991989
 20
40.766411
  0
POINT
  5
2029B
100
AcDbEntity
  8
0
100
AcDbPoint
 10
-73.988768
 20
40.77091
  0
POINT
  5
2029C
100
AcDbEntity
  8
0
100
AcDbPoint
 10
-73.989334
 20
40.75535
  0
POINT
  5
2029D
100
AcDbEntity
  8
0
100
AcDbPoint
 10
-73.993731
 20
40.749018
  0
POINT
  5
2029E
100
AcDbEntity
  8
0
100
AcDbPoint
 10
-73.961931
 20
40.812475
  0
POINT
  5
2029F
100
AcDbEntity
  8
0
100
AcDbPoint
 10
-73.972584
 20
40.794981
  0
POINT
  5
202A0
100
AcDbEntity
  8
0
100
AcDbPoint
 10
-73.989922
 20
40.75818
  0
POINT
  5
202A1
100
AcDbEntity
  8
0
100
AcDbPoint
 10
-73.998142
 20
40.732783
  0
POINT
  5
202A2
100
AcDbEntity
  8
0
100
AcDbPoint
 10
-73.941005
 20
40.790012
  0
POINT
  5
202A3
100
AcDbEntity
  8
0
100
AcDbPoint
 10
-73.982119
 20
40.766391
  0
POINT
  5
202A4
100
AcDbEntity
  8
0
100
AcDbPoint
 10
-73.986587
 20
40.704313
  0
POINT
  5
202A5
100
AcDbEntity
  8
0
100
AcDbPoint
 10
-74.008494
 20
40.736955
  0
POINT
  5
202A6
100
AcDbEntity
  8
0
100
AcDbPoint
 10
-73.979444
 20
40.767019
  0
POINT
  5
202A7
100
AcDbEntity
  8
0
100
AcDbPoint
 10
-74.010433
 20
40.718559
  0
POINT
  5
202A8
100
AcDbEntity
  8
0
100
AcDbPoint
 10
-73.986753
 20
40.754707
  0
POINT
  5
202A9
100
AcDbEntity
  8
0
100
AcDbPoint
 10
-73.944416
 20
40.809254
  0
POINT
  5
202AA
100
AcDbEntity
  8
0
100
AcDbPoint
 10
-73.992603
 20
40.766669
  0
POINT
  5
202AB
100
AcDbEntity
  8
0
100
AcDbPoint
 10
-74.006464
 20
40.708173
  0
POINT
  5
202AC
100
AcDbEntity
  8
0
100
AcDbPoint
 10
-73.998394
 20
40.744396
  0
POINT
  5
202AD
100
AcDbEntity
  8
0
100
AcDbPoint
 10
-73.991683
 20
40.762176
  0
POINT
  5
202AE
100
AcDbEntity
  8
0
100
AcDbPoint
 10
-73.974417
 20
40.791029
  0
POINT
  5
202AF
100
AcDbEntity
  8
0
100
AcDbPoint
 10
-73.985004
 20
40.717466
  0
POINT
  5
202B0
100
AcDbEntity
  8
0
100
AcDbPoint
 10
-73.981335
 20
40.784133
  0
POINT
  5
202B1
100
AcDbEntity
  8
0
100
AcDbPoint
 10
-73.977571
 20
40.756246
  0
POINT
  5
202B2
100
AcDbEntity
  8
0
100
AcDbPoint
 10
-74.011552
 20
40.704541
  0
POINT
  5
202B3
100
AcDbEntity
  8
0
100
AcDbPoint
 10
-73.987433
 20
40.730817
  0
POINT
  5
202B4
100
AcDbEntity
  8
0
100
AcDbPoint
 10
-73.962546
 20
40.778633
  0
POINT
  5
202B5
100
AcDbEntity
  8
0
100
AcDbPoint
 10
-73.98275
 20
40.772031
  0
POINT
  5
202B6
100
AcDbEntity
  8
0
100
AcDbPoint
 10
-73.983591
 20
40.773626
  0
POINT
  5
202B7
100
AcDbEntity
  8
0
100
AcDbPoint
 10
-73.981454
 20
40.77109
  0
POINT
  5
202B8
100
AcDbEntity
  8
0
100
AcDbPoint
 10
-73.953222
 20
40.770025
  0
POINT
  5
202B9
100
AcDbEntity
  8
0
100
AcDbPoint
 10
-74.003976
 20
40.725677
  0
POINT
  5
202BA
100
AcDbEntity
  8
0
100
AcDbPoint
 10
-73.992663
 20
40.748208
  0
POINT
  5
202BB
100
AcDbEntity
  8
0
100
AcDbPoint
 10
-73.991449
 20
40.760038
  0
POINT
  5
202BC
100
AcDbEntity
  8
0
100
AcDbPoint
 10
-73.990497
 20
40.726634
  0
POINT
  5
202BD
100
AcDbEntity
  8
0
100
AcDbPoint
 10
-73.996177
 20
40.698605
  0
POINT
  5
202BE
100
AcDbEntity
  8
0
100
AcDbPoint
 10
-73.990832
 20
40.757661
  0
POINT
  5
202BF
100
AcDbEntity
  8
0
100
AcDbPoint
 10
-73.933351
 20
40.705533
  0
POINT
  5
202C0
100
AcDbEntity
  8
0
100
AcDbPoint
 10
-74.002818
 20
40.735621
  0
POINT
  5
202C1
100
AcDbEntity
  8
0
100
AcDbPoint
 10
-73.969458
 20
40.801139
  0
POINT
  5
202C2
100
AcDbEntity
  8
0
100
AcDbPoint
 10
-74.008325
 20
40.709639
  0
POINT
  5
202C3
100
AcDbEntity
  8
0
100
AcDbPoint
 10
-73.972022
 20
40.765609
  0
POINT
  5
202C4
100
AcDbEntity
  8
0
100
AcDbPoint
 10
-73.984785
 20
40.728261
  0
POINT
  5
202C5
100
AcDbEntity
  8
0
100
AcDbPoint
 10
-73.9801
 20
40.722395
  0
POINT
  5
202C6
100
AcDbEntity
  8
0
100
AcDbPoint
 10
-73.985501
 20
40.703729
  0
POINT
  5
202C7
100
AcDbEntity
  8
0
100
AcDbPoint
 10
-73.993349
 20
40.744011
  0
POINT
  5
202C8
100
AcDbEntity
  8
0
100
AcDbPoint
 10
-73.927849
 20
40.820221
  0
POINT
  5
202C9
100
AcDbEntity
  8
0
100
AcDbPoint
 10
-73.974855
 20
40.758888
  0
POINT
  5
202CA
100
AcDbEntity
  8
0
100
AcDbPoint
 10
-73.993713
 20
40.714733
  0
POINT
  5
202CB
100
AcDbEntity
  8
0
100
AcDbPoint
 10
-73.947524
 20
40.808644
  0
POINT
  5
202CC
100
AcDbEntity
  8
0
100
AcDbPoint
 10
-74.009396
 20
40.706331
  0
POINT
  5
202CD
100
AcDbEntity
  8
0
100
AcDbPoint
 10
-73.982137
 20
40.769995
  0
POINT
  5
202CE
100
AcDbEntity
  8
0
100
AcDbPoint
 10
-73.999203
 20
40.716092
  0
POINT
  5
202CF
100
AcDbEntity
  8
0
100
AcDbPoint
 10
-73.997157
 20
40.72496
  0
POINT
  5
202D0
100
AcDbEntity
  8
0
100
AcDbPoint
 10
-73.987433
 20
40.730817
  0
POINT
  5
202D1
100
AcDbEntity
  8
0
100
AcDbPoint
 10
-74.018001
 20
40.705806
  0
POINT
  5
202D2
100
AcDbEntity
  8
0
100
AcDbPoint
 10
-73.977201
 20
40.761002
  0
POINT
  5
202D3
100
AcDbEntity
  8
0
100
AcDbPoint
 10
-73.980402
 20
40.714117
  0
POINT
  5
202D4
100
AcDbEntity
  8
0
100
AcDbPoint
 10
-73.952448
 20
40.792438
  0
POINT
  5
202D5
100
AcDbEntity
  8
0
100
AcDbPoint
 10
-73.960711
 20
40.810853
  0
POINT
  5
202D6
100
AcDbEntity
  8
0
100
AcDbPoint
 10
-73.97473
 20
40.793189
  0
POINT
  5
202D7
100
AcDbEntity
  8
0
100
AcDbPoint
 10
-73.959386
 20
40.708935
  0
POINT
  5
202D8
100
AcDbEntity
  8
0
100
AcDbPoint
 10
-74.000198
 20
40.713144
  0
POINT
  5
202D9
100
AcDbEntity
  8
0
100
AcDbPoint
 10
-73.976747
 20
40.788007
  0
POINT
  5
202DA
100
AcDbEntity
  8
0
100
AcDbPoint
 10
-74.010191
 20
40.718068
  0
POINT
  5
202DB
100
AcDbEntity
  8
0
100
AcDbPoint
 10
-73.9529
 20
40.79181
  0
POINT
  5
202DC
100
AcDbEntity
  8
0
100
AcDbPoint
 10
-73.95858
 20
40.775377
  0
POINT
  5
202DD
100
AcDbEntity
  8
0
100
AcDbPoint
 10
-73.991907
 20
40.729327
  0
POINT
  5
202DE
100
AcDbEntity
  8
0
100
AcDbPoint
 10
-73.97693
 20
40.782551
  0
POINT
  5
202DF
100
AcDbEntity
  8
0
100
AcDbPoint
 10
-73.946545
 20
40.781501
  0
POINT
  5
202E0
100
AcDbEntity
  8
0
100
AcDbPoint
 10
-73.985619
 20
40.744096
  0
POINT
  5
202E1
100
AcDbEntity
  8
0
100
AcDbPoint
 10
-73.933351
 20
40.705533
  0
POINT
  5
202E2
100
AcDbEntity
  8
0
100
AcDbPoint
 10
-74.000357
 20
40.738827
  0
POINT
  5
202E3
100
AcDbEntity
  8
0
100
AcDbPoint
 10
-73.983627
 20
40.757981
  0
POINT
  5
202E4
100
AcDbEntity
  8
0
100
AcDbPoint
 10
-73.982968
 20
40.721811
  0
POINT
  5
202E5
100
AcDbEntity
  8
0
100
AcDbPoint
 10
-73.998333
 20
40.746043
  0
POINT
  5
202E6
100
AcDbEntity
  8
0
100
AcDbPoint
 10
-73.950998
 20
40.800241
  0
POINT
  5
202E7
100
AcDbEntity
  8
0
100
AcDbPoint
 10
-73.993623
 20
40.748148
  0
POINT
  5
202E8
100
AcDbEntity
  8
0
100
AcDbPoint
 10
-73.989073
 20
40.743523
  0
POINT
  5
202E9
100
AcDbEntity
  8
0
100
AcDbPoint
 10
-74.009053
 20
40.736112
  0
POINT
  5
202EA
100
AcDbEntity
  8
0
100
AcDbPoint
 10
-73.977972
 20
40.764655
  0
POINT
  5
202EB
100
AcDbEntity
  8
0
100
AcDbPoint
 10
-73.958781
 20
40.78377
  0
POINT
  5
202EC
100
AcDbEntity
  8
0
100
AcDbPoint
 10
-73.992417
 20
40.753612
  0
POINT
  5
202ED
100
AcDbEntity
  8
0
100
AcDbPoint
 10
-73.986483
 20
40.737783
  0
POINT
  5
202EE
100
AcDbEntity
  8
0
100
AcDbPoint
 10
-73.992417
 20
40.753612
  0
POINT
  5
202EF
100
AcDbEntity
  8
0
100
AcDbPoint
 10
-73.992417
 20
40.753612
  0
POINT
  5
202F0
100
AcDbEntity
  8
0
100
AcDbPoint
 10
-73.979323
 20
40.772659
  0
POINT
  5
202F1
100
AcDbEntity
  8
0
100
AcDbPoint
 10
-73.993772
 20
40.735807
  0
POINT
  5
202F2
100
AcDbEntity
  8
0
100
AcDbPoint
 10
-73.937184
 20
40.809226
  0
POINT
  5
202F3
100
AcDbEntity
  8
0
100
AcDbPoint
 10
-73.941984
 20
40.806783
  0
POINT
  5
202F4
100
AcDbEntity
  8
0
100
AcDbPoint
 10
-73.983684
 20
40.761964
  0
POINT
  5
202F5
100
AcDbEntity
  8
0
100
AcDbPoint
 10
-73.971361
 20
40.750971
  0
POINT
  5
202F6
100
AcDbEntity
  8
0
100
AcDbPoint
 10
-73.938931
 20
40.823283
  0
POINT
  5
202F7
100
AcDbEntity
  8
0
100
AcDbPoint
 10
-73.992417
 20
40.753612
  0
POINT
  5
202F8
100
AcDbEntity
  8
0
100
AcDbPoint
 10
-73.934887
 20
40.794897
  0
POINT
  5
202F9
100
AcDbEntity
  8
0
100
AcDbPoint
 10
-73.99254
 20
40.745266
  0
POINT
  5
202FA
100
AcDbEntity
  8
0
100
AcDbPoint
 10
-73.985478
 20
40.761193
  0
POINT
  5
202FB
100
AcDbEntity
  8
0
100
AcDbPoint
 10
-74.015442
 20
40.711425
  0
POINT
  5
202FC
100
AcDbEntity
  8
0
100
AcDbPoint
 10
-74.00893
 20
40.726917
  0
POINT
  5
202FD
100
AcDbEntity
  8
0
100
AcDbPoint
 10
-74.007181
 20
40.705892
  0
POINT
  5
202FE
100
AcDbEntity
  8
0
100
AcDbPoint
 10
-73.997673
 20
40.722542
  0
POINT
  5
202FF
100
AcDbEntity
  8
0
100
AcDbPoint
 10
-73.967315
 20
40.788063
  0
POINT
  5
20300
100
AcDbEntity
  8
0
100
AcDbPoint
 10
-73.992587
 20
40.748277
  0
POINT
  5
20301
100
AcDbEntity
  8
0
100
AcDbPoint
 10
-73.985797
 20
40.754691
  0
POINT
  5
20302
100
AcDbEntity
  8
0
100
AcDbPoint
 10
-73.98819
 20
40.756571
  0
POINT
  5
20303
100
AcDbEntity
  8
0
100
AcDbPoint
 10
-73.982378
 20
40.745646
  0
POINT
  5
20304
100
AcDbEntity
  8
0
100
AcDbPoint
 10
-73.943743
 20
40.811195
  0
POINT
  5
20305
100
AcDbEntity
  8
0
100
AcDbPoint
 10
-74.010198
 20
40.717398
  0
POINT
  5
20306
100
AcDbEntity
  8
0
100
AcDbPoint
 10
-73.992604
 20
40.760107
  0
POINT
  5
20307
100
AcDbEntity
  8
0
100
AcDbPoint
 10
-73.978889
 20
40.764151
  0
POINT
  5
20308
100
AcDbEntity
  8
0
100
AcDbPoint
 10
-73.997
 20
40.76028
  0
POINT
  5
20309
100
AcDbEntity
  8
0
100
AcDbPoint
 10
-73.991377
 20
40.752171
  0
POINT
  5
2030A
100
AcDbEntity
  8
0
100
AcDbPoint
 10
-73.945094
 20
40.815902
  0
POINT
  5
2030B
100
AcDbEntity
  8
0
100
AcDbPoint
 10
-73.993225
 20
40.722424
  0
POINT
  5
2030C
100
AcDbEntity
  8
0
100
AcDbPoint
 10
-74.011592
 20
40.703954
  0
POINT
  5
2030D
100
AcDbEntity
  8
0
100
AcDbPoint
 10
-73.996856
 20
40.756099
  0
POINT
  5
2030E
100
AcDbEntity
  8
0
100
AcDbPoint
 10
-73.98819
 20
40.756571
  0
POINT
  5
2030F
100
AcDbEntity
  8
0
100
AcDbPoint
 10
-73.996558
 20
40.725699
  0
POINT
  5
20310
100
AcDbEntity
  8
0
100
AcDbPoint
 10
-73.997139
 20
40.735744
  0
POINT
  5
20311
100
AcDbEntity
  8
0
100
AcDbPoint
 10
-74.011552
 20
40.704541
  0
POINT
  5
20312
100
AcDbEntity
  8
0
100
AcDbPoint
 10
-73.974297
 20
40.793079
  0
POINT
  5
20313
100
AcDbEntity
  8
0
100
AcDbPoint
 10
-73.952174
 20
40.792101
  0
POINT
  5
20314
100
AcDbEntity
  8
0
100
AcDbPoint
 10
-74.011709
 20
40.71322
  0
POINT
  5
20315
100
AcDbEntity
  8
0
100
AcDbPoint
 10
-73.989668
 20
40.717944
  0
POINT
  5
20316
100
AcDbEntity
  8
0
100
AcDbPoint
 10
-73.985433
 20
40.768321
  0
POINT
  5
20317
100
AcDbEntity
  8
0
100
AcDbPoint
 10
-73.990827
 20
40.71333
  0
POINT
  5
20318
100
AcDbEntity
  8
0
100
AcDbPoint
 10
-74.011041
 20
40.708546
  0
POINT
  5
20319
100
AcDbEntity
  8
0
100
AcDbPoint
 10
-73.983652
 20
40.771776
  0
POINT
  5
2031A
100
AcDbEntity
  8
0
100
AcDbPoint
 10
-73.978889
 20
40.764151
  0
POINT
  5
2031B
100
AcDbEntity
  8
0
100
AcDbPoint
 10
-73.99825
 20
40.733068
  0
POINT
  5
2031C
100
AcDbEntity
  8
0
100
AcDbPoint
 10
-73.980157
 20
40.760289
  0
POINT
  5
2031D
100
AcDbEntity
  8
0
100
AcDbPoint
 10
-73.997203
 20
40.736875
  0
POINT
  5
2031E
100
AcDbEntity
  8
0
100
AcDbPoint
 10
-73.992636
 20
40.759302
  0
POINT
  5
2031F
100
AcDbEntity
  8
0
100
AcDbPoint
 10
-74.008039
 20
40.703279
  0
POINT
  5
20320
100
AcDbEntity
  8
0
100
AcDbPoint
 10
-73.949762
 20
40.761781
  0
POINT
  5
20321
100
AcDbEntity
  8
0
100
AcDbPoint
 10
-73.947945
 20
40.801283
  0
POINT
  5
20322
100
AcDbEntity
  8
0
100
AcDbPoint
 10
-73.965336
 20
40.766118
  0
POINT
  5
20323
100
AcDbEntity
  8
0
100
AcDbPoint
 10
-73.958589
 20
40.766377
  0
POINT
  5
20324
100
AcDbEntity
  8
0
100
AcDbPoint
 10
-73.976941
 20
40.781681
  0
POINT
  5
20325
100
AcDbEntity
  8
0
100
AcDbPoint
 10
-73.989911
 20
40.738604
  0
POINT
  5
20326
100
AcDbEntity
  8
0
100
AcDbPoint
 10
-73.993616
 20
40.746869
  0
POINT
  5
20327
100
AcDbEntity
  8
0
100
AcDbPoint
 10
-73.984369
 20
40.749341
  0
POINT
  5
20328
100
AcDbEntity
  8
0
100
AcDbPoint
 10
-73.969586
 20
40.796267
  0
POINT
  5
20329
100
AcDbEntity
  8
0
100
AcDbPoint
 10
-73.970689
 20
40.792483
  0
POINT
  5
2032A
100
AcDbEntity
  8
0
100
AcDbPoint
 10
-73.977972
 20
40.764655
  0
POINT
  5
2032B
100
AcDbEntity
  8
0
100
AcDbPoint
 10
-74.008217
 20
40.71187
  0
POINT
  5
2032C
100
AcDbEntity
  8
0
100
AcDbPoint
 10
-74.008072
 20
40.709872
  0
POINT
  5
2032D
100
AcDbEntity
  8
0
100
AcDbPoint
 10
-73.998546
 20
40.74212
  0
POINT
  5
2032E
100
AcDbEntity
  8
0
100
AcDbPoint
 10
-73.998546
 20
40.74212
  0
POINT
  5
2032F
100
AcDbEntity
  8
0
100
AcDbPoint
 10
-74.012952
 20
40.706251
  0
POINT
  5
20330
100
AcDbEntity
  8
0
100
AcDbPoint
 10
-74.005617
 20
40.726615
  0
POINT
  5
20331
100
AcDbEntity
  8
0
100
AcDbPoint
 10
-73.968457
 20
40.801842
  0
POINT
  5
20332
100
AcDbEntity
  8
0
100
AcDbPoint
 10
-73.993532
 20
40.749734
  0
POINT
  5
20333
100
AcDbEntity
  8
0
100
AcDbPoint
 10
-73.992218
 20
40.728932
  0
POINT
  5
20334
100
AcDbEntity
  8
0
100
AcDbPoint
 10
-73.993623
 20
40.748148
  0
POINT
  5
20335
100
AcDbEntity
  8
0
100
AcDbPoint
 10
-73.996803
 20
40.732437
  0
POINT
  5
20336
100
AcDbEntity
  8
0
100
AcDbPoint
 10
-73.986625
 20
40.767429
  0
POINT
  5
20337
100
AcDbEntity
  8
0
100
AcDbPoint
 10
-73.980512
 20
40.744257
  0
POINT
  5
20338
100
AcDbEntity
  8
0
100
AcDbPoint
 10
-73.990096
 20
40.726483
  0
POINT
  5
20339
100
AcDbEntity
  8
0
100
AcDbPoint
 10
-73.981817
 20
40.751374
  0
POINT
  5
2033A
100
AcDbEntity
  8
0
100
AcDbPoint
 10
-73.985696
 20
40.753818
  0
POINT
  5
2033B
100
AcDbEntity
  8
0
100
AcDbPoint
 10
-73.973743
 20
40.779265
  0
POINT
  5
2033C
100
AcDbEntity
  8
0
100
AcDbPoint
 10
-73.969139
 20
40.802775
  0
POINT
  5
2033D
100
AcDbEntity
  8
0
100
AcDbPoint
 10
-73.9378
 20
40.726244
  0
POINT
  5
2033E
100
AcDbEntity
  8
0
100
AcDbPoint
 10
-73.974278
 20
40.787365
  0
POINT
  5
2033F
100
AcDbEntity
  8
0
100
AcDbPoint
 10
-73.996042
 20
40.726634
  0
POINT
  5
20340
100
AcDbEntity
  8
0
100
AcDbPoint
 10
-73.986827
 20
40.768395
  0
POINT
  5
20341
100
AcDbEntity
  8
0
100
AcDbPoint
 10
-73.993143
 20
40.747549
  0
POINT
  5
20342
100
AcDbEntity
  8
0
100
AcDbPoint
 10
-73.992528
 20
40.727579
  0
POINT
  5
20343
100
AcDbEntity
  8
0
100
AcDbPoint
 10
-74.010667
 20
40.717604
  0
POINT
  5
20344
100
AcDbEntity
  8
0
100
AcDbPoint
 10
-73.954083
 20
40.803868
  0
POINT
  5
20345
100
AcDbEntity
  8
0
100
AcDbPoint
 10
-74.004859
 20
40.721054
  0
POINT
  5
20346
100
AcDbEntity
  8
0
100
AcDbPoint
 10
-73.989123
 20
40.743254
  0
POINT
  5
20347
100
AcDbEntity
  8
0
100
AcDbPoint
 10
-74.00544
 20
40.720404
  0
POINT
  5
20348
100
AcDbEntity
  8
0
100
AcDbPoint
 10
-73.992572
 20
40.720621
  0
POINT
  5
20349
100
AcDbEntity
  8
0
100
AcDbPoint
 10
-73.957838
 20
40.721607
  0
POINT
  5
2034A
100
AcDbEntity
  8
0
100
AcDbPoint
 10
-73.969812
 20
40.80047
  0
POINT
  5
2034B
100
AcDbEntity
  8
0
100
AcDbPoint
 10
-73.983069
 20
40.779228
  0
POINT
  5
2034C
100
AcDbEntity
  8
0
100
AcDbPoint
 10
-73.980932
 20
40.754371
  0
POINT
  5
2034D
100
AcDbEntity
  8
0
100
AcDbPoint
 10
-73.938612
 20
40.804885
  0
POINT
  5
2034E
100
AcDbEntity
  8
0
100
AcDbPoint
 10
-73.944881
 20
40.802854
  0
POINT
  5
2034F
100
AcDbEntity
  8
0
100
AcDbPoint
 10
-73.945278
 20
40.715146
  0
POINT
  5
20350
100
AcDbEntity
  8
0
100
AcDbPoint
 10
-73.98309
 20
40.75623
  0
POINT
  5
20351
100
AcDbEntity
  8
0
100
AcDbPoint
 10
-73.98474
 20
40.735518
  0
POINT
  5
20352
100
AcDbEntity
  8
0
100
AcDbPoint
 10
-73.992417
 20
40.753612
  0
POINT
  5
20353
100
AcDbEntity
  8
0
100
AcDbPoint
 10
-73.961277
 20
40.719113
  0
POINT
  5
20354
100
AcDbEntity
  8
0
100
AcDbPoint
 10
-73.963607
 20
40.812306
  0
POINT
  5
20355
100
AcDbEntity
  8
0
100
AcDbPoint
 10
-73.999657
 20
40.738607
  0
POINT
  5
20356
100
AcDbEntity
  8
0
100
AcDbPoint
 10
-73.983939
 20
40.78214
  0
POINT
  5
20357
100
AcDbEntity
  8
0
100
AcDbPoint
 10
-73.9986
 20
40.728496
  0
POINT
  5
20358
100
AcDbEntity
  8
0
100
AcDbPoint
 10
-73.982813
 20
40.723394
  0
POINT
  5
20359
100
AcDbEntity
  8
0
100
AcDbPoint
 10
-73.946068
 20
40.745668
  0
POINT
  5
2035A
100
AcDbEntity
  8
0
100
AcDbPoint
 10
-73.997269
 20
40.724831
  0
POINT
  5
2035B
100
AcDbEntity
  8
0
100
AcDbPoint
 10
-73.993237
 20
40.743081
  0
POINT
  5
2035C
100
AcDbEntity
  8
0
100
AcDbPoint
 10
-73.984717
 20
40.728387
  0
POINT
  5
2035D
100
AcDbEntity
  8
0
100
AcDbPoint
 10
-73.949687
 20
40.790461
  0
POINT
  5
2035E
100
AcDbEntity
  8
0
100
AcDbPoint
 10
-73.985992
 20
40.721045
  0
POINT
  5
2035F
100
AcDbEntity
  8
0
100
AcDbPoint
 10
-73.977829
 20
40.760445
  0
POINT
  5
20360
100
AcDbEntity
  8
0
100
AcDbPoint
 10
-73.964653
 20
40.754889
  0
POINT
  5
20361
100
AcDbEntity
  8
0
100
AcDbPoint
 10
-73.992417
 20
40.753612
  0
POINT
  5
20362
100
AcDbEntity
  8
0
100
AcDbPoint
 10
-73.982739
 20
40.769998
  0
POINT
  5
20363
100
AcDbEntity
  8
0
100
AcDbPoint
 10
-74.005841
 20
40.725397
  0
POINT
  5
20364
100
AcDbEntity
  8
0
100
AcDbPoint
 10
-73.994559
 20
40.726036
  0
POINT
  5
20365
100
AcDbEntity
  8
0
100
AcDbPoint
 10
-74.005891
 20
40.718546
  0
POINT
  5
20366
100
AcDbEntity
  8
0
100
AcDbPoint
 10
-73.953294
 20
40.806085
  0
POINT
  5
20367
100
AcDbEntity
  8
0
100
AcDbPoint
 10
-74.003891
 20
40.750854
  0
POINT
  5
20368
100
AcDbEntity
  8
0
100
AcDbPoint
 10
-74.005955
 20
40.74369
  0
POINT
  5
20369
100
AcDbEntity
  8
0
100
AcDbPoint
 10
-73.983433
 20
40.723658
  0
POINT
  5
2036A
100
AcDbEntity
  8
0
100
AcDbPoint
 10
-73.98819
 20
40.756571
  0
POINT
  5
2036B
100
AcDbEntity
  8
0
100
AcDbPoint
 10
-73.98518
 20
40.721877
  0
POINT
  5
2036C
100
AcDbEntity
  8
0
100
AcDbPoint
 10
-73.980496
 20
40.714128
  0
POINT
  5
2036D
100
AcDbEntity
  8
0
100
AcDbPoint
 10
-73.979769
 20
40.754997
  0
POINT
  5
2036E
100
AcDbEntity
  8
0
100
AcDbPoint
 10
-73.997213
 20
40.76037
  0
POINT
  5
2036F
100
AcDbEntity
  8
0
100
AcDbPoint
 10
-73.9972
 20
40.724938
  0
POINT
  5
20370
100
AcDbEntity
  8
0
100
AcDbPoint
 10
-73.957164
 20
40.809962
  0
POINT
  5
20371
100
AcDbEntity
  8
0
100
AcDbPoint
 10
-74.009869
 20
40.709932
  0
POINT
  5
20372
100
AcDbEntity
  8
0
100
AcDbPoint
 10
-73.988539
 20
40.740242
  0
POINT
  5
20373
100
AcDbEntity
  8
0
100
AcDbPoint
 10
-73.984785
 20
40.728261
  0
POINT
  5
20374
100
AcDbEntity
  8
0
100
AcDbPoint
 10
-74.007758
 20
40.707657
  0
POINT
  5
20375
100
AcDbEntity
  8
0
100
AcDbPoint
 10
-73.979169
 20
40.780131
  0
POINT
  5
20376
100
AcDbEntity
  8
0
100
AcDbPoint
 10
-74.00544
 20
40.720404
  0
POINT
  5
20377
100
AcDbEntity
  8
0
100
AcDbPoint
 10
-73.989139
 20
40.73321
  0
POINT
  5
20378
100
AcDbEntity
  8
0
100
AcDbPoint
 10
-73.978164
 20
40.774627
  0
POINT
  5
20379
100
AcDbEntity
  8
0
100
AcDbPoint
 10
-73.982421
 20
40.772473
  0
POINT
  5
2037A
100
AcDbEntity
  8
0
100
AcDbPoint
 10
-73.954789
 20
40.775792
  0
POINT
  5
2037B
100
AcDbEntity
  8
0
100
AcDbPoint
 10
-73.986203
 20
40.72951
  0
POINT
  5
2037C
100
AcDbEntity
  8
0
100
AcDbPoint
 10
-73.997842
 20
40.754022
  0
POINT
  5
2037D
100
AcDbEntity
  8
0
100
AcDbPoint
 10
-73.981763
 20
40.749387
  0
POINT
  5
2037E
100
AcDbEntity
  8
0
100
AcDbPoint
 10
-73.991215
 20
40.726159
  0
POINT
  5
2037F
100
AcDbEntity
  8
0
100
AcDbPoint
 10
-73.955247
 20
40.738925
  0
POINT
  5
20380
100
AcDbEntity
  8
0
100
AcDbPoint
 10
-73.989669
 20
40.75889
  0
POINT
  5
20381
100
AcDbEntity
  8
0
100
AcDbPoint
 10
-73.99285
 20
40.753047
  0
POINT
  5
20382
100
AcDbEntity
  8
0
100
AcDbPoint
 10
-73.993394
 20
40.758742
  0
POINT
  5
20383
100
AcDbEntity
  8
0
100
AcDbPoint
 10
-73.992417
 20
40.753612
  0
POINT
  5
20384
100
AcDbEntity
  8
0
100
AcDbPoint
 10
-73.991814
 20
40.754477
  0
POINT
  5
20385
100
AcDbEntity
  8
0
100
AcDbPoint
 10
-73.950221
 20
40.819196
  0
POINT
  5
20386
100
AcDbEntity
  8
0
100
AcDbPoint
 10
-73.988432
 20
40.730471
  0
POINT
  5
20387
100
AcDbEntity
  8
0
100
AcDbPoint
 10
-73.986483
 20
40.737783
  0
POINT
  5
20388
100
AcDbEntity
  8
0
100
AcDbPoint
 10
-74.011592
 20
40.703954
  0
POINT
  5
20389
100
AcDbEntity
  8
0
100
AcDbPoint
 10
-74.016442
 20
40.716072
  0
POINT
  5
2038A
100
AcDbEntity
  8
0
100
AcDbPoint
 10
-73.998784
 20
40.744901
  0
POINT
  5
2038B
100
AcDbEntity
  8
0
100
AcDbPoint
 10
-73.992549
 20
40.733809
  0
POINT
  5
2038C
100
AcDbEntity
  8
0
100
AcDbPoint
 10
-73.979213
 20
40.777581
  0
POINT
  5
2038D
100
AcDbEntity
  8
0
100
AcDbPoint
 10
-73.993591
 20
40.743248
  0
POINT
  5
2038E
100
AcDbEntity
  8
0
100
AcDbPoint
 10
-73.928132
 20
40.819393
  0
POINT
  5
2038F
100
AcDbEntity
  8
0
100
AcDbPoint
 10
-73.983317
 20
40.725192
  0
POINT
  5
20390
100
AcDbEntity
  8
0
100
AcDbPoint
 10
-74.004174
 20
40.722575
  0
POINT
  5
20391
100
AcDbEntity
  8
0
100
AcDbPoint
 10
-73.992175
 20
40.754946
  0
POINT
  5
20392
100
AcDbEntity
  8
0
100
AcDbPoint
 10
-74.005858
 20
40.750489
  0
POINT
  5
20393
100
AcDbEntity
  8
0
100
AcDbPoint
 10
-74.015893
 20
40.711329
  0
POINT
  5
20394
100
AcDbEntity
  8
0
100
AcDbPoint
 10
-74.005901
 20
40.710114
  0
POINT
  5
20395
100
AcDbEntity
  8
0
100
AcDbPoint
 10
-73.992417
 20
40.753612
  0
POINT
  5
20396
100
AcDbEntity
  8
0
100
AcDbPoint
 10
-73.975584
 20
40.760324
  0
POINT
  5
20397
100
AcDbEntity
  8
0
100
AcDbPoint
 10
-73.986587
 20
40.704313
  0
POINT
  5
20398
100
AcDbEntity
  8
0
100
AcDbPoint
 10
-73.983991
 20
40.746333
  0
POINT
  5
20399
100
AcDbEntity
  8
0
100
AcDbPoint
 10
-73.970047
 20
40.792233
  0
POINT
  5
2039A
100
AcDbEntity
  8
0
100
AcDbPoint
 10
-73.946558
 20
40.791881
  0
POINT
  5
2039B
100
AcDbEntity
  8
0
100
AcDbPoint
 10
-73.99154
 20
40.75224
  0
POINT
  5
2039C
100
AcDbEntity
  8
0
100
AcDbPoint
 10
-73.95017
 20
40.82463
  0
POINT
  5
2039D
100
AcDbEntity
  8
0
100
AcDbPoint
 10
-73.989637
 20
40.756582
  0
POINT
  5
2039E
100
AcDbEntity
  8
0
100
AcDbPoint
 10
-73.979952
 20
40.760023
  0
POINT
  5
2039F
100
AcDbEntity
  8
0
100
AcDbPoint
 10
-73.99785
 20
40.71952
  0
POINT
  5
203A0
100
AcDbEntity
  8
0
100
AcDbPoint
 10
-73.944744
 20
40.750081
  0
POINT
  5
203A1
100
AcDbEntity
  8
0
100
AcDbPoint
 10
-73.990519
 20
40.722934
  0
POINT
  5
203A2
100
AcDbEntity
  8
0
100
AcDbPoint
 10
-74.009102
 20
40.720014
  0
POINT
  5
203A3
100
AcDbEntity
  8
0
100
AcDbPoint
 10
-73.986587
 20
40.704313
  0
POINT
  5
203A4
100
AcDbEntity
  8
0
100
AcDbPoint
 10
-73.968055
 20
40.787289
  0
POINT
  5
203A5
100
AcDbEntity
  8
0
100
AcDbPoint
 10
-73.98266
 20
40.769965
  0
POINT
  5
203A6
100
AcDbEntity
  8
0
100
AcDbPoint
 10
-73.9986
 20
40.728496
  0
POINT
  5
203A7
100
AcDbEntity
  8
0
100
AcDbPoint
 10
-74.001855
 20
40.736027
  0
POINT
  5
203A8
100
AcDbEntity
  8
0
100
AcDbPoint
 10
-73.967655
 20
40.697267
  0
POINT
  5
203A9
100
AcDbEntity
  8
0
100
AcDbPoint
 10
-74.000393
 20
40.733645
  0
POINT
  5
203AA
100
AcDbEntity
  8
0
100
AcDbPoint
 10
-74.006498
 20
40.732522
  0
POINT
  5
203AB
100
AcDbEntity
  8
0
100
AcDbPoint
 10
-73.996467
 20
40.742949
  0
POINT
  5
203AC
100
AcDbEntity
  8
0
100
AcDbPoint
 10
-73.976721
 20
40.74842
  0
POINT
  5
203AD
100
AcDbEntity
  8
0
100
AcDbPoint
 10
-73.993226
 20
40.743097
  0
POINT
  5
203AE
100
AcDbEntity
  8
0
100
AcDbPoint
 10
-73.962459
 20
40.716229
  0
POINT
  5
203AF
100
AcDbEntity
  8
0
100
AcDbPoint
 10
-73.988627
 20
40.734163
  0
POINT
  5
203B0
100
AcDbEntity
  8
0
100
AcDbPoint
 10
-73.984825
 20
40.727388
  0
POINT
  5
203B1
100
AcDbEntity
  8
0
100
AcDbPoint
 10
-73.988482
 20
40.755802
  0
POINT
  5
203B2
100
AcDbEntity
  8
0
100
AcDbPoint
 10
-73.941227
 20
40.817599
  0
POINT
  5
203B3
100
AcDbEntity
  8
0
100
AcDbPoint
 10
-73.992417
 20
40.753612
  0
POINT
  5
203B4
100
AcDbEntity
  8
0
100
AcDbPoint
 10
-73.993225
 20
40.722424
  0
POINT
  5
203B5
100
AcDbEntity
  8
0
100
AcDbPoint
 10
-74.001508
 20
40.707712
  0
POINT
  5
203B6
100
AcDbEntity
  8
0
100
AcDbPoint
 10
-73.998441
 20
40.723478
  0
POINT
  5
203B7
100
AcDbEntity
  8
0
100
AcDbPoint
 10
-74.005955
 20
40.750934
  0
POINT
  5
203B8
100
AcDbEntity
  8
0
100
AcDbPoint
 10
-73.935647
 20
40.699372
  0
POINT
  5
203B9
100
AcDbEntity
  8
0
100
AcDbPoint
 10
-73.969586
 20
40.796267
  0
POINT
  5
203BA
100
AcDbEntity
  8
0
100
AcDbPoint
 10
-73.963607
 20
40.812306
  0
POINT
  5
203BB
100
AcDbEntity
  8
0
100
AcDbPoint
 10
-73.983818
 20
40.775613
  0
POINT
  5
203BC
100
AcDbEntity
  8
0
100
AcDbPoint
 10
-73.990663
 20
40.726706
  0
POINT
  5
203BD
100
AcDbEntity
  8
0
100
AcDbPoint
 10
-73.948582
 20
40.808639
  0
POINT
  5
203BE
100
AcDbEntity
  8
0
100
AcDbPoint
 10
-73.949734
 20
40.761839
  0
POINT
  5
203BF
100
AcDbEntity
  8
0
100
AcDbPoint
 10
-73.951106
 20
40.760706
  0
POINT
  5
203C0
100
AcDbEntity
  8
0
100
AcDbPoint
 10
-73.993156
 20
40.761177
  0
POINT
  5
203C1
100
AcDbEntity
  8
0
100
AcDbPoint
 10
-73.989363
 20
40.754576
  0
POINT
  5
203C2
100
AcDbEntity
  8
0
100
AcDbPoint
 10
-73.965936
 20
40.801426
  0
POINT
  5
203C3
100
AcDbEntity
  8
0
100
AcDbPoint
 10
-73.997727
 20
40.740224
  0
POINT
  5
203C4
100
AcDbEntity
  8
0
100
AcDbPoint
 10
-73.98897
 20
40.753283
  0
POINT
  5
203C5
100
AcDbEntity
  8
0
100
AcDbPoint
 10
-73.951179
 20
40.769146
  0
POINT
  5
203C6
100
AcDbEntity
  8
0
100
AcDbPoint
 10
-73.986072
 20
40.750744
  0
POINT
  5
203C7
100
AcDbEntity
  8
0
100
AcDbPoint
 10
-73.987852
 20
40.72836
  0
POINT
  5
203C8
100
AcDbEntity
  8
0
100
AcDbPoint
 10
-73.961428
 20
40.695453
  0
POINT
  5
203C9
100
AcDbEntity
  8
0
100
AcDbPoint
 10
-73.995982
 20
40.711434
  0
POINT
  5
203CA
100
AcDbEntity
  8
0
100
AcDbPoint
 10
-74.003929
 20
40.73163
  0
POINT
  5
203CB
100
AcDbEntity
  8
0
100
AcDbPoint
 10
-73.967446
 20
40.71116
  0
POINT
  5
203CC
100
AcDbEntity
  8
0
100
AcDbPoint
 10
-73.94165
 20
40.813008
  0
POINT
  5
203CD
100
AcDbEntity
  8
0
100
AcDbPoint
 10
-74.001826
 20
40.746712
  0
POINT
  5
203CE
100
AcDbEntity
  8
0
100
AcDbPoint
 10
-73.981261
 20
40.762713
  0
POINT
  5
203CF
100
AcDbEntity
  8
0
100
AcDbPoint
 10
-73.997203
 20
40.736875
  0
POINT
  5
203D0
100
AcDbEntity
  8
0
100
AcDbPoint
 10
-73.994808
 20
40.73435
  0
POINT
  5
203D1
100
AcDbEntity
  8
0
100
AcDbPoint
 10
-73.964168
 20
40.811101
  0
POINT
  5
203D2
100
AcDbEntity
  8
0
100
AcDbPoint
 10
-73.949614
 20
40.796304
  0
POINT
  5
203D3
100
AcDbEntity
  8
0
100
AcDbPoint
 10
-73.987401
 20
40.728956
  0
POINT
  5
203D4
100
AcDbEntity
  8
0
100
AcDbPoint
 10
-73.992417
 20
40.753612
  0
POINT
  5
203D5
100
AcDbEntity
  8
0
100
AcDbPoint
 10
-73.992417
 20
40.753612
  0
POINT
  5
203D6
100
AcDbEntity
  8
0
100
AcDbPoint
 10
-73.983591
 20
40.773626
  0
POINT
  5
203D7
100
AcDbEntity
  8
0
100
AcDbPoint
 10
-73.985777
 20
40.730136
  0
POINT
  5
203D8
100
AcDbEntity
  8
0
100
AcDbPoint
 10
-73.941173
 20
40.747013
  0
POINT
  5
203D9
100
AcDbEntity
  8
0
100
AcDbPoint
 10
-73.952782
 20
40.80527
  0
POINT
  5
203DA
100
AcDbEntity
  8
0
100
AcDbPoint
 10
-73.989799
 20
40.75813
  0
POINT
  5
203DB
100
AcDbEntity
  8
0
100
AcDbPoint
 10
-73.956922
 20
40.804879
  0
POINT
  5
203DC
100
AcDbEntity
  8
0
100
AcDbPoint
 10
-73.989654
 20
40.739644
  0
POINT
  5
203DD
100
AcDbEntity
  8
0
100
AcDbPoint
 10
-73.992304
 20
40.697285
  0
POINT
  5
203DE
100
AcDbEntity
  8
0
100
AcDbPoint
 10
-74.010897
 20
40.710223
  0
POINT
  5
203DF
100
AcDbEntity
  8
0
100
AcDbPoint
 10
-73.99187
 20
40.77052
  0
POINT
  5
203E0
100
AcDbEntity
  8
0
100
AcDbPoint
 10
-73.966448
 20
40.767491
  0
POINT
  5
203E1
100
AcDbEntity
  8
0
100
AcDbPoint
 10
-73.98287
 20
40.782036
  0
POINT
  5
203E2
100
AcDbEntity
  8
0
100
AcDbPoint
 10
-74.002207
 20
40.708113
  0
POINT
  5
203E3
100
AcDbEntity
  8
0
100
AcDbPoint
 10
-73.996467
 20
40.742949
  0
POINT
  5
203E4
100
AcDbEntity
  8
0
100
AcDbPoint
 10
-74.002812
 20
40.752841
  0
POINT
  5
203E5
100
AcDbEntity
  8
0
100
AcDbPoint
 10
-73.998546
 20
40.74212
  0
POINT
  5
203E6
100
AcDbEntity
  8
0
100
AcDbPoint
 10
-73.978505
 20
40.746768
  0
POINT
  5
203E7
100
AcDbEntity
  8
0
100
AcDbPoint
 10
-73.991863
 20
40.732681
  0
POINT
  5
203E8
100
AcDbEntity
  8
0
100
AcDbPoint
 10
-73.991449
 20
40.760038
  0
POINT
  5
203E9
100
AcDbEntity
  8
0
100
AcDbPoint
 10
-73.973656
 20
40.787985
  0
POINT
  5
203EA
100
AcDbEntity
  8
0
100
AcDbPoint
 10
-73.948064
 20
40.70422
  0
POINT
  5
203EB
100
AcDbEntity
  8
0
100
AcDbPoint
 10
-74.017976
 20
40.705869
  0
POINT
  5
203EC
100
AcDbEntity
  8
0
100
AcDbPoint
 10
-73.984256
 20
40.724023
  0
POINT
  5
203ED
100
AcDbEntity
  8
0
100
AcDbPoint
 10
-73.9901
 20
40.703875
  0
POINT
  5
203EE
100
AcDbEntity
  8
0
100
AcDbPoint
 10
-73.964763
 20
40.697112
  0
POINT
  5
203EF
100
AcDbEntity
  8
0
100
AcDbPoint
 10
-73.95564
 20
40.814216
  0
POINT
  5
203F0
100
AcDbEntity
  8
0
100
AcDbPoint
 10
-73.990486
 20
40.729365
  0
POINT
  5
203F1
100
AcDbEntity
  8
0
100
AcDbPoint
 10
-73.966774
 20
40.764897
  0
POINT
  5
203F2
100
AcDbEntity
  8
0
100
AcDbPoint
 10
-73.986122
 20
40.718943
  0
POINT
  5
203F3
100
AcDbEntity
  8
0
100
AcDbPoint
 10
-73.987364
 20
40.730806
  0
POINT
  5
203F4
100
AcDbEntity
  8
0
100
AcDbPoint
 10
-73.933351
 20
40.705533
  0
POINT
  5
203F5
100
AcDbEntity
  8
0
100
AcDbPoint
 10
-74.002482
 20
40.71871
  0
POINT
  5
203F6
100
AcDbEntity
  8
0
100
AcDbPoint
 10
-74.008129
 20
40.73273
  0
POINT
  5
203F7
100
AcDbEntity
  8
0
100
AcDbPoint
 10
-73.989829
 20
40.753942
  0
POINT
  5
203F8
100
AcDbEntity
  8
0
100
AcDbPoint
 10
-73.959391
 20
40.782925
  0
POINT
  5
203F9
100
AcDbEntity
  8
0
100
AcDbPoint
 10
-73.941788
 20
40.815382
  0
POINT
  5
203FA
100
AcDbEntity
  8
0
100
AcDbPoint
 10
-74.011375
 20
40.703496
  0
POINT
  5
203FB
100
AcDbEntity
  8
0
100
AcDbPoint
 10
-73.999282
 20
40.727667
  0
POINT
  5
203FC
100
AcDbEntity
  8
0
100
AcDbPoint
 10
-73.984283
 20
40.732082
  0
POINT
  5
203FD
100
AcDbEntity
  8
0
100
AcDbPoint
 10
-74.006082
 20
40.718633
  0
POINT
  5
203FE
100
AcDbEntity
  8
0
100
AcDbPoint
 10
-74.003495
 20
40.706631
  0
POINT
  5
203FF
100
AcDbEntity
  8
0
100
AcDbPoint
 10
-73.959594
 20
40.710664
  0
POINT
  5
20400
100
AcDbEntity
  8
0
100
AcDbPoint
 10
-73.980932
 20
40.754371
  0
POINT
  5
20401
100
AcDbEntity
  8
0
100
AcDbPoint
 10
-73.982606
 20
40.741889
  0
POINT
  5
20402
100
AcDbEntity
  8
0
100
AcDbPoint
 10
-73.994211
 20
40.74349
  0
POINT
  5
20403
100
AcDbEntity
  8
0
100
AcDbPoint
 10
-73.97614
 20
40.789874
  0
POINT
  5
20404
100
AcDbEntity
  8
0
100
AcDbPoint
 10
-73.992624
 20
40.70332
  0
POINT
  5
20405
100
AcDbEntity
  8
0
100
AcDbPoint
 10
-73.9834
 20
40.713264
  0
POINT
  5
20406
100
AcDbEntity
  8
0
100
AcDbPoint
 10
-73.979638
 20
40.712269
  0
POINT
  5
20407
100
AcDbEntity
  8
0
100
AcDbPoint
 10
-73.996759
 20
40.756058
  0
POINT
  5
20408
100
AcDbEntity
  8
0
100
AcDbPoint
 10
-73.940025
 20
40.715895
  0
POINT
  5
20409
100
AcDbEntity
  8
0
100
AcDbPoint
 10
-73.989669
 20
40.75889
  0
POINT
  5
2040A
100
AcDbEntity
  8
0
100
AcDbPoint
 10
-73.989922
 20
40.75818
  0
POINT
  5
2040B
100
AcDbEntity
  8
0
100
AcDbPoint
 10
-74.016651
 20
40.715534
  0
POINT
  5
2040C
100
AcDbEntity
  8
0
100
AcDbPoint
 10
-73.977972
 20
40.764655
  0
POINT
  5
2040D
100
AcDbEntity
  8
0
100
AcDbPoint
 10
-73.964468
 20
40.810679
  0
POINT
  5
2040E
100
AcDbEntity
  8
0
100
AcDbPoint
 10
-73.989354
 20
40.744747
  0
POINT
  5
2040F
100
AcDbEntity
  8
0
100
AcDbPoint
 10
-73.987401
 20
40.728956
  0
POINT
  5
20410
100
AcDbEntity
  8
0
100
AcDbPoint
 10
-73.997124
 20
40.727153
  0
POINT
  5
20411
100
AcDbEntity
  8
0
100
AcDbPoint
 10
-73.954461
 20
40.78564
  0
POINT
  5
20412
100
AcDbEntity
  8
0
100
AcDbPoint
 10
-73.996984
 20
40.721318
  0
POINT
  5
20413
100
AcDbEntity
  8
0
100
AcDbPoint
 10
-73.977719
 20
40.776949
  0
POINT
  5
20414
100
AcDbEntity
  8
0
100
AcDbPoint
 10
-74.011552
 20
40.704541
  0
POINT
  5
20415
100
AcDbEntity
  8
0
100
AcDbPoint
 10
-73.969712
 20
40.788816
  0
POINT
  5
20416
100
AcDbEntity
  8
0
100
AcDbPoint
 10
-73.964713
 20
40.716767
  0
POINT
  5
20417
100
AcDbEntity
  8
0
100
AcDbPoint
 10
-74.008493
 20
40.724126
  0
POINT
  5
20418
100
AcDbEntity
  8
0
100
AcDbPoint
 10
-73.947278
 20
40.808523
  0
POINT
  5
20419
100
AcDbEntity
  8
0
100
AcDbPoint
 10
-73.989237
 20
40.77422
  0
POINT
  5
2041A
100
AcDbEntity
  8
0
100
AcDbPoint
 10
-73.990594
 20
40.753475
  0
POINT
  5
2041B
100
AcDbEntity
  8
0
100
AcDbPoint
 10
-73.964666
 20
40.696728
  0
POINT
  5
2041C
100
AcDbEntity
  8
0
100
AcDbPoint
 10
-73.988191
 20
40.727897
  0
POINT
  5
2041D
100
AcDbEntity
  8
0
100
AcDbPoint
 10
-73.966282
 20
40.802393
  0
POINT
  5
2041E
100
AcDbEntity
  8
0
100
AcDbPoint
 10
-73.972393
 20
40.793842
  0
POINT
  5
2041F
100
AcDbEntity
  8
0
100
AcDbPoint
 10
-74.004156
 20
40.718526
  0
POINT
  5
20420
100
AcDbEntity
  8
0
100
AcDbPoint
 10
-73.983433
 20
40.723658
  0
POINT
  5
20421
100
AcDbEntity
  8
0
100
AcDbPoint
 10
-73.992872
 20
40.745428
  0
POINT
  5
20422
100
AcDbEntity
  8
0
100
AcDbPoint
 10
-74.004098
 20
40.718521
  0
POINT
  5
20423
100
AcDbEntity
  8
0
100
AcDbPoint
 10
-73.988383
 20
40.74515
  0
POINT
  5
20424
100
AcDbEntity
  8
0
100
AcDbPoint
 10
-73.966961
 20
40.801841
  0
POINT
  5
20425
100
AcDbEntity
  8
0
100
AcDbPoint
 10
-73.992589
 20
40.763565
  0
POINT
  5
20426
100
AcDbEntity
  8
0
100
AcDbPoint
 10
-73.940905
 20
40.749011
  0
POINT
  5
20427
100
AcDbEntity
  8
0
100
AcDbPoint
 10
-73.979457
 20
40.747959
  0
POINT
  5
20428
100
AcDbEntity
  8
0
100
AcDbPoint
 10
-73.959465
 20
40.815436
  0
POINT
  5
20429
100
AcDbEntity
  8
0
100
AcDbPoint
 10
-73.977281
 20
40.726196
  0
POINT
  5
2042A
100
AcDbEntity
  8
0
100
AcDbPoint
 10
-73.977032
 20
40.749364
  0
POINT
  5
2042B
100
AcDbEntity
  8
0
100
AcDbPoint
 10
-73.983667
 20
40.757998
  0
POINT
  5
2042C
100
AcDbEntity
  8
0
100
AcDbPoint
 10
-73.990594
 20
40.726695
  0
POINT
  5
2042D
100
AcDbEntity
  8
0
100
AcDbPoint
 10
-73.992417
 20
40.753612
  0
POINT
  5
2042E
100
AcDbEntity
  8
0
100
AcDbPoint
 10
-73.973458
 20
40.751238
  0
POINT
  5
2042F
100
AcDbEntity
  8
0
100
AcDbPoint
 10
-73.978971
 20
40.721766
  0
POINT
  5
20430
100
AcDbEntity
  8
0
100
AcDbPoint
 10
-73.97996
 20
40.767236
  0
POINT
  5
20431
100
AcDbEntity
  8
0
100
AcDbPoint
 10
-73.993245
 20
40.735859
  0
POINT
  5
20432
100
AcDbEntity
  8
0
100
AcDbPoint
 10
-73.994235
 20
40.761312
  0
POINT
  5
20433
100
AcDbEntity
  8
0
100
AcDbPoint
 10
-73.992636
 20
40.759302
  0
POINT
  5
20434
100
AcDbEntity
  8
0
100
AcDbPoint
 10
-74.013374
 20
40.705752
  0
POINT
  5
20435
100
AcDbEntity
  8
0
100
AcDbPoint
 10
-73.969812
 20
40.80047
  0
POINT
  5
20436
100
AcDbEntity
  8
0
100
AcDbPoint
 10
-73.998734
 20
40.721304
  0
POINT
  5
20437
100
AcDbEntity
  8
0
100
AcDbPoint
 10
-73.955835
 20
40.743808
  0
POINT
  5
20438
100
AcDbEntity
  8
0
100
AcDbPoint
 10
-73.984058
 20
40.751512
  0
POINT
  5
20439
100
AcDbEntity
  8
0
100
AcDbPoint
 10
-73.984634
 20
40.728505
  0
POINT
  5
2043A
100
AcDbEntity
  8
0
100
AcDbPoint
 10
-74.004352
 20
40.733529
  0
POINT
  5
2043B
100
AcDbEntity
  8
0
100
AcDbPoint
 10
-73.992417
 20
40.753612
  0
POINT
  5
2043C
100
AcDbEntity
  8
0
100
AcDbPoint
 10
-73.992417
 20
40.753612
  0
POINT
  5
2043D
100
AcDbEntity
  8
0
100
AcDbPoint
 10
-73.994077
 20
40.754151
  0
POINT
  5
2043E
100
AcDbEntity
  8
0
100
AcDbPoint
 10
-73.984067
 20
40.759974
  0
POINT
  5
2043F
100
AcDbEntity
  8
0
100
AcDbPoint
 10
-73.992417
 20
40.753612
  0
POINT
  5
20440
100
AcDbEntity
  8
0
100
AcDbPoint
 10
-74.008129
 20
40.73273
  0
POINT
  5
20441
100
AcDbEntity
  8
0
100
AcDbPoint
 10
-73.987709
 20
40.76007
  0
POINT
  5
20442
100
AcDbEntity
  8
0
100
AcDbPoint
 10
-73.984829
 20
40.740418
  0
POINT
  5
20443
100
AcDbEntity
  8
0
100
AcDbPoint
 10
-73.977419
 20
40.723484
  0
POINT
  5
20444
100
AcDbEntity
  8
0
100
AcDbPoint
 10
-73.991678
 20
40.747327
  0
POINT
  5
20445
100
AcDbEntity
  8
0
100
AcDbPoint
 10
-73.987401
 20
40.728956
  0
POINT
  5
20446
100
AcDbEntity
  8
0
100
AcDbPoint
 10
-73.997196
 20
40.742299
  0
POINT
  5
20447
100
AcDbEntity
  8
0
100
AcDbPoint
 10
-73.98819
 20
40.756571
  0
POINT
  5
20448
100
AcDbEntity
  8
0
100
AcDbPoint
 10
-73.987401
 20
40.728956
  0
POINT
  5
20449
100
AcDbEntity
  8
0
100
AcDbPoint
 10
-73.983326
 20
40.764382
  0
POINT
  5
2044A
100
AcDbEntity
  8
0
100
AcDbPoint
 10
-73.984843
 20
40.75886
  0
POINT
  5
2044B
100
AcDbEntity
  8
0
100
AcDbPoint
 10
-73.993616
 20
40.746869
  0
POINT
  5
2044C
100
AcDbEntity
  8
0
100
AcDbPoint
 10
-73.949077
 20
40.807961
  0
POINT
  5
2044D
100
AcDbEntity
  8
0
100
AcDbPoint
 10
-73.984382
 20
40.755843
  0
POINT
  5
2044E
100
AcDbEntity
  8
0
100
AcDbPoint
 10
-73.956705
 20
40.727798
  0
POINT
  5
2044F
100
AcDbEntity
  8
0
100
AcDbPoint
 10
-73.992417
 20
40.753612
  0
POINT
  5
20450
100
AcDbEntity
  8
0
100
AcDbPoint
 10
-73.979952
 20
40.760023
  0
POINT
  5
20451
100
AcDbEntity
  8
0
100
AcDbPoint
 10
-74.010191
 20
40.718068
  0
POINT
  5
20452
100
AcDbEntity
  8
0
100
AcDbPoint
 10
-74.004156
 20
40.718526
  0
POINT
  5
20453
100
AcDbEntity
  8
0
100
AcDbPoint
 10
-74.010242
 20
40.719704
  0
POINT
  5
20454
100
AcDbEntity
  8
0
100
AcDbPoint
 10
-73.954211
 20
40.823048
  0
POINT
  5
20455
100
AcDbEntity
  8
0
100
AcDbPoint
 10
-73.992864
 20
40.755237
  0
POINT
  5
20456
100
AcDbEntity
  8
0
100
AcDbPoint
 10
-73.956507
 20
40.727098
  0
POINT
  5
20457
100
AcDbEntity
  8
0
100
AcDbPoint
 10
-73.963411
 20
40.808021
  0
POINT
  5
20458
100
AcDbEntity
  8
0
100
AcDbPoint
 10
-73.992926
 20
40.751098
  0
POINT
  5
20459
100
AcDbEntity
  8
0
100
AcDbPoint
 10
-74.011107
 20
40.714821
  0
POINT
  5
2045A
100
AcDbEntity
  8
0
100
AcDbPoint
 10
-73.972741
 20
40.746742
  0
POINT
  5
2045B
100
AcDbEntity
  8
0
100
AcDbPoint
 10
-73.971208
 20
40.795417
  0
POINT
  5
2045C
100
AcDbEntity
  8
0
100
AcDbPoint
 10
-73.988558
 20
40.711351
  0
POINT
  5
2045D
100
AcDbEntity
  8
0
100
AcDbPoint
 10
-73.950959
 20
40.710068
  0
POINT
  5
2045E
100
AcDbEntity
  8
0
100
AcDbPoint
 10
-73.942312
 20
40.798906
  0
POINT
  5
2045F
100
AcDbEntity
  8
0
100
AcDbPoint
 10
-73.989642
 20
40.72785
  0
POINT
  5
20460
100
AcDbEntity
  8
0
100
AcDbPoint
 10
-74.005887
 20
40.719322
  0
POINT
  5
20461
100
AcDbEntity
  8
0
100
AcDbPoint
 10
-73.990677
 20
40.703482
  0
POINT
  5
20462
100
AcDbEntity
  8
0
100
AcDbPoint
 10
-73.994348
 20
40.747665
  0
POINT
  5
20463
100
AcDbEntity
  8
0
100
AcDbPoint
 10
-73.990674
 20
40.720653
  0
POINT
  5
20464
100
AcDbEntity
  8
0
100
AcDbPoint
 10
-73.971429
 20
40.79363
  0
POINT
  5
20465
100
AcDbEntity
  8
0
100
AcDbPoint
 10
-73.954415
 20
40.815901
  0
POINT
  5
20466
100
AcDbEntity
  8
0
100
AcDbPoint
 10
-73.992725
 20
40.739666
  0
POINT
  5
20467
100
AcDbEntity
  8
0
100
AcDbPoint
 10
-73.962276
 20
40.795648
  0
POINT
  5
20468
100
AcDbEntity
  8
0
100
AcDbPoint
 10
-73.998607
 20
40.741379
  0
POINT
  5
20469
100
AcDbEntity
  8
0
100
AcDbPoint
 10
-73.989602
 20
40.70273
  0
POINT
  5
2046A
100
AcDbEntity
  8
0
100
AcDbPoint
 10
-73.991213
 20
40.741352
  0
POINT
  5
2046B
100
AcDbEntity
  8
0
100
AcDbPoint
 10
-73.9932
 20
40.753755
  0
POINT
  5
2046C
100
AcDbEntity
  8
0
100
AcDbPoint
 10
-73.989139
 20
40.735011
  0
POINT
  5
2046D
100
AcDbEntity
  8
0
100
AcDbPoint
 10
-73.980715
 20
40.741921
  0
POINT
  5
2046E
100
AcDbEntity
  8
0
100
AcDbPoint
 10
-73.982278
 20
40.768304
  0
POINT
  5
2046F
100
AcDbEntity
  8
0
100
AcDbPoint
 10
-74.003999
 20
40.750094
  0
POINT
  5
20470
100
AcDbEntity
  8
0
100
AcDbPoint
 10
-73.938875
 20
40.805258
  0
POINT
  5
20471
100
AcDbEntity
  8
0
100
AcDbPoint
 10
-73.980996
 20
40.781912
  0
POINT
  5
20472
100
AcDbEntity
  8
0
100
AcDbPoint
 10
-73.983619
 20
40.773621
  0
POINT
  5
20473
100
AcDbEntity
  8
0
100
AcDbPoint
 10
-73.982553
 20
40.779876
  0
POINT
  5
20474
100
AcDbEntity
  8
0
100
AcDbPoint
 10
-73.975584
 20
40.760324
  0
POINT
  5
20475
100
AcDbEntity
  8
0
100
AcDbPoint
 10
-74.007344
 20
40.748345
  0
POINT
  5
20476
100
AcDbEntity
  8
0
100
AcDbPoint
 10
-73.984334
 20
40.728923
  0
POINT
  5
20477
100
AcDbEntity
  8
0
100
AcDbPoint
 10
-74.006427
 20
40.70438
  0
POINT
  5
20478
100
AcDbEntity
  8
0
100
AcDbPoint
 10
-73.987401
 20
40.728956
  0
POINT
  5
20479
100
AcDbEntity
  8
0
100
AcDbPoint
 10
-73.986275
 20
40.762074
  0
POINT
  5
2047A
100
AcDbEntity
  8
0
100
AcDbPoint
 10
-74.002471
 20
40.707981
  0
POINT
  5
2047B
100
AcDbEntity
  8
0
100
AcDbPoint
 10
-73.990832
 20
40.757661
  0
POINT
  5
2047C
100
AcDbEntity
  8
0
100
AcDbPoint
 10
-73.961431
 20
40.77098
  0
POINT
  5
2047D
100
AcDbEntity
  8
0
100
AcDbPoint
 10
-74.009562
 20
40.711843
  0
POINT
  5
2047E
100
AcDbEntity
  8
0
100
AcDbPoint
 10
-73.938279
 20
40.703831
  0
POINT
  5
2047F
100
AcDbEntity
  8
0
100
AcDbPoint
 10
-73.953759
 20
40.812964
  0
POINT
  5
20480
100
AcDbEntity
  8
0
100
AcDbPoint
 10
-73.980958
 20
40.776607
  0
POINT
  5
20481
100
AcDbEntity
  8
0
100
AcDbPoint
 10
-74.009959
 20
40.736762
  0
POINT
  5
20482
100
AcDbEntity
  8
0
100
AcDbPoint
 10
-73.969586
 20
40.796267
  0
POINT
  5
20483
100
AcDbEntity
  8
0
100
AcDbPoint
 10
-73.9939
 20
40.719229
  0
POINT
  5
20484
100
AcDbEntity
  8
0
100
AcDbPoint
 10
-74.008332
 20
40.738763
  0
POINT
  5
20485
100
AcDbEntity
  8
0
100
AcDbPoint
 10
-73.964199
 20
40.773457
  0
POINT
  5
20486
100
AcDbEntity
  8
0
100
AcDbPoint
 10
-73.938264
 20
40.817647
  0
POINT
  5
20487
100
AcDbEntity
  8
0
100
AcDbPoint
 10
-73.983607
 20
40.722953
  0
POINT
  5
20488
100
AcDbEntity
  8
0
100
AcDbPoint
 10
-73.963728
 20
40.710446
  0
POINT
  5
20489
100
AcDbEntity
  8
0
100
AcDbPoint
 10
-74.008129
 20
40.73273
  0
POINT
  5
2048A
100
AcDbEntity
  8
0
100
AcDbPoint
 10
-73.991449
 20
40.760038
  0
POINT
  5
2048B
100
AcDbEntity
  8
0
100
AcDbPoint
 10
-73.98648
 20
40.749256
  0
POINT
  5
2048C
100
AcDbEntity
  8
0
100
AcDbPoint
 10
-74.00053
 20
40.720978
  0
POINT
  5
2048D
100
AcDbEntity
  8
0
100
AcDbPoint
 10
-73.974793
 20
40.752726
  0
POINT
  5
2048E
100
AcDbEntity
  8
0
100
AcDbPoint
 10
-73.992603
 20
40.766669
  0
POINT
  5
2048F
100
AcDbEntity
  8
0
100
AcDbPoint
 10
-73.988681
 20
40.774058
  0
POINT
  5
20490
100
AcDbEntity
  8
0
100
AcDbPoint
 10
-73.992417
 20
40.753612
  0
POINT
  5
20491
100
AcDbEntity
  8
0
100
AcDbPoint
 10
-73.990594
 20
40.753475
  0
POINT
  5
20492
100
AcDbEntity
  8
0
100
AcDbPoint
 10
-73.990807
 20
40.726785
  0
POINT
  5
20493
100
AcDbEntity
  8
0
100
AcDbPoint
 10
-73.973324
 20
40.752328
  0
POINT
  5
20494
100
AcDbEntity
  8
0
100
AcDbPoint
 10
-73.95101
 20
40.769077
  0
POINT
  5
20495
100
AcDbEntity
  8
0
100
AcDbPoint
 10
-73.988097
 20
40.748655
  0
POINT
  5
20496
100
AcDbEntity
  8
0
100
AcDbPoint
 10
-73.986681
 20
40.702763
  0
POINT
  5
20497
100
AcDbEntity
  8
0
100
AcDbPoint
 10
-73.964168
 20
40.811101
  0
POINT
  5
20498
100
AcDbEntity
  8
0
100
AcDbPoint
 10
-73.953817
 20
40.729161
  0
POINT
  5
20499
100
AcDbEntity
  8
0
100
AcDbPoint
 10
-74.007753
 20
40.724658
  0
POINT
  5
2049A
100
AcDbEntity
  8
0
100
AcDbPoint
 10
-73.992993
 20
40.729884
  0
POINT
  5
2049B
100
AcDbEntity
  8
0
100
AcDbPoint
 10
-73.976048
 20
40.783904
  0
POINT
  5
2049C
100
AcDbEntity
  8
0
100
AcDbPoint
 10
-73.994607
 20
40.755704
  0
POINT
  5
2049D
100
AcDbEntity
  8
0
100
AcDbPoint
 10
-73.993454
 20
40.737677
  0
POINT
  5
2049E
100
AcDbEntity
  8
0
100
AcDbPoint
 10
-73.94429
 20
40.727524
  0
POINT
  5
2049F
100
AcDbEntity
  8
0
100
AcDbPoint
 10
-73.991034
 20
40.757746
  0
POINT
  5
204A0
100
AcDbEntity
  8
0
100
AcDbPoint
 10
-73.985903
 20
40.730172
  0
POINT
  5
204A1
100
AcDbEntity
  8
0
100
AcDbPoint
 10
-73.993454
 20
40.737677
  0
POINT
  5
204A2
100
AcDbEntity
  8
0
100
AcDbPoint
 10
-73.973256
 20
40.750256
  0
POINT
  5
204A3
100
AcDbEntity
  8
0
100
AcDbPoint
 10
-73.983316
 20
40.74726
  0
POINT
  5
204A4
100
AcDbEntity
  8
0
100
AcDbPoint
 10
-73.981809
 20
40.766481
  0
POINT
  5
204A5
100
AcDbEntity
  8
0
100
AcDbPoint
 10
-73.932142
 20
40.695242
  0
POINT
  5
204A6
100
AcDbEntity
  8
0
100
AcDbPoint
 10
-73.952989
 20
40.783038
  0
POINT
  5
204A7
100
AcDbEntity
  8
0
100
AcDbPoint
 10
-73.980465
 20
40.770689
  0
POINT
  5
204A8
100
AcDbEntity
  8
0
100
AcDbPoint
 10
-73.980363
 20
40.772281
  0
POINT
  5
204A9
100
AcDbEntity
  8
0
100
AcDbPoint
 10
-73.982907
 20
40.750691
  0
POINT
  5
204AA
100
AcDbEntity
  8
0
100
AcDbPoint
 10
-73.990154
 20
40.754079
  0
POINT
  5
204AB
100
AcDbEntity
  8
0
100
AcDbPoint
 10
-73.948827
 20
40.804181
  0
POINT
  5
204AC
100
AcDbEntity
  8
0
100
AcDbPoint
 10
-73.990745
 20
40.758509
  0
POINT
  5
204AD
100
AcDbEntity
  8
0
100
AcDbPoint
 10
-73.998546
 20
40.74212
  0
POINT
  5
204AE
100
AcDbEntity
  8
0
100
AcDbPoint
 10
-73.987401
 20
40.728956
  0
POINT
  5
204AF
100
AcDbEntity
  8
0
100
AcDbPoint
 10
-73.991384
 20
40.730169
  0
POINT
  5
204B0
100
AcDbEntity
  8
0
100
AcDbPoint
 10
-73.986681
 20
40.702763
  0
POINT
  5
204B1
100
AcDbEntity
  8
0
100
AcDbPoint
 10
-73.989073
 20
40.743523
  0
POINT
  5
204B2
100
AcDbEntity
  8
0
100
AcDbPoint
 10
-74.004561
 20
40.737539
  0
POINT
  5
204B3
100
AcDbEntity
  8
0
100
AcDbPoint
 10
-74.00127
 20
40.747335
  0
ENDSEC
  0
SECTION
  2
OBJECTS
  0
DICTIONARY
  5
C
330
0
100
AcDbDictionary
281
     1
  3
ACAD_GROUP
350
D
  3
ACAD_LAYOUT
350
1A
  3
ACAD_MLEADERSTYLE
350
43
  3
ACAD_PLOTSETTINGS
350
19
  3
ACAD_PLOTSTYLENAME
350
E
  3
ACAD_TABLESTYLE
350
42
  0
DICTIONARY
  5
D
102
{ACAD_REACTORS
330
C
102
}
330
C
100
AcDbDictionary
281
     1
  0
DICTIONARY
  5
1A
102
{ACAD_REACTORS
330
C
102
}
330
C
100
AcDbDictionary
281
     1
  3
Layout1
350
1E
  3
Model
350
22
  0
DICTIONARY
  5
43
102
{ACAD_REACTORS
330
C
102
}
330
C
100
AcDbDictionary
281
     1
  0
DICTIONARY
  5
19
102
{ACAD_REACTORS
330
C
102
}
330
C
100
AcDbDictionary
281
     1
  0
ACDBDICTIONARYWDFLT
  5
E
102
{ACAD_REACTORS
330
C
102
}
330
C
100
AcDbDictionary
281
     1
  3
Normal
350
F
100
AcDbDictionaryWithDefault
340
F
  0
DICTIONARY
  5
42
102
{ACAD_REACTORS
330
C
102
}
330
C
100
AcDbDictionary
281
     1
  0
LAYOUT
  5
1E
102
{ACAD_REACTORS
330
1A
102
}
330
1A
100
AcDbPlotSettings
  1

  2
none_device
  4

  6

 40
0.0
 41
0.0
 42
0.0
 43
0.0
 44
0.0
 45
0.0
 46
0.0
 47
0.0
 48
0.0
 49
0.0
140
0.0
141
0.0
142
1.0
143
1.0
 70
   688
 72
     0
 73
     0
 74
     5
  7

 75
    16
 76
     0
 77
     2
 78
   300
147
1.0
148
0.0
149
0.0
100
AcDbLayout
  1
Layout1
 70
     1
 71
     1
 10
0.0
 20
0.0
 11
12.0
 21
9.0
 12
0.0
 22
0.0
 32
0.0
 14
1.000000000000000E+20
 24
1.000000000000000E+20
 34
1.000000000000000E+20
 15
-1.000000000000000E+20
 25
-1.000000000000000E+20
 35
-1.000000000000000E+20
146
0.0
 13
0.0
 23
0.0
 33
0.0
 16
1.0
 26
0.0
 36
0.0
 17
0.0
 27
1.0
 37
0.0
 76
     0
330
1B
  0
LAYOUT
  5
22
102
{ACAD_REACTORS
330
1A
102
}
330
1A
100
AcDbPlotSettings
  1

  2
none_device
  4

  6

 40
0.0
 41
0.0
 42
0.0
 43
0.0
 44
0.0
 45
0.0
 46
0.0
 47
0.0
 48
0.0
 49
0.0
140
0.0
141
0.0
142
1.0
143
1.0
 70
  1712
 72
     0
 73
     0
 74
     0
  7

 75
     0
 76
     0
 77
     2
 78
   300
147
1.0
148
0.0
149
0.0
100
AcDbLayout
  1
Model
 70
     1
 71
     0
 10
0.0
 20
0.0
 11
12.0
 21
9.0
 12
0.0
 22
0.0
 32
0.0
 14
30.0
 24
49.75
 34
0.0
 15
130.5
 25
163.1318914119703
 35
0.0
146
0.0
 13
0.0
 23
0.0
 33
0.0
 16
1.0
 26
0.0
 36
0.0
 17
0.0
 27
1.0
 37
0.0
 76
     0
330
1F
331
29
  0
ENDSEC
  0
EOF
